<?xml version="1.0" encoding="utf-8"?>
<!-- Generator: Adobe Illustrator 23.0.1, SVG Export Plug-In . SVG Version: 6.00 Build 0)  -->
<svg version="1.1" id="BACKGROUND_2" xmlns="http://www.w3.org/2000/svg" xmlns:xlink="http://www.w3.org/1999/xlink" x="0px"
	 y="0px" viewBox="0 0 750 500" enable-background="new 0 0 750 500" xml:space="preserve">
<g>
	<defs>
		<rect id="SVGID_1_" width="750" height="500"/>
	</defs>
	<clipPath id="SVGID_2_">
		<use xlink:href="#SVGID_1_"  overflow="visible"/>
	</clipPath>
	<rect x="0" clip-path="url(#SVGID_2_)" fill="#1D226B" width="750" height="500"/>
	<g opacity="0.78" clip-path="url(#SVGID_2_)">
		<polygon fill="#FFFFFF" points="341.9,165.2 360.1,165.2 379.7,184.9 449.5,184.9 465.4,169 481.6,169 481.6,172.5 489.5,172.5 
			489.5,164.6 481.6,164.6 481.6,167.9 464.9,167.9 449.1,183.8 380.2,183.8 360.5,164.1 341.9,164.1 341.9,160.7 334,160.7 
			334,168.6 341.9,168.6 		"/>
		<polygon fill="#FFFFFF" points="341.9,151.3 368.8,151.3 388.4,170.9 438.3,170.9 458.6,150.5 481.6,150.5 481.6,154.7 
			489.5,154.7 489.5,146.8 481.6,146.8 481.6,149.4 458.2,149.4 437.8,169.8 388.8,169.8 369.3,150.2 341.9,150.2 341.9,146.8 
			334,146.8 334,154.7 341.9,154.7 		"/>
		<polygon fill="#FFFFFF" points="380.5,341.8 359.8,341.8 345.7,327.7 275.6,327.7 260.2,312.3 321,312.3 335.7,297.6 343.4,297.6 
			343.4,301 351.3,301 351.3,293.1 343.4,293.1 343.4,296.5 335.3,296.5 320.5,311.2 259.2,311.2 222.4,274.5 244.1,274.5 
			258.7,289.1 301.9,289.1 301.9,292.5 309.8,292.5 309.8,284.6 301.9,284.6 301.9,288 259.2,288 244.6,273.4 189.9,273.4 
			174.5,258 253.5,258 253.5,261.4 261.4,261.4 261.4,253.5 253.5,253.5 253.5,256.9 173.4,256.9 159.5,243 0.6,243 0.6,244.1 
			159.1,244.1 189.4,274.5 220.9,274.5 257.6,311.2 257.4,311.2 257.4,312.3 258.7,312.3 275.2,328.8 345.3,328.8 359.3,342.9 
			380.5,342.9 380.5,346.3 388.4,346.3 388.4,338.4 380.5,338.4 		"/>
		<rect x="509.1" y="220.4" fill="#FFFFFF" width="7.9" height="7.9"/>
		<polygon fill="#FFFFFF" points="617.2,274.4 617.2,277.8 532,277.8 502.2,248.1 488.3,248.1 488.3,244.8 480.4,244.8 480.4,252.6 
			488.3,252.6 488.3,249.2 501.8,249.2 530.4,277.8 471.9,277.8 462.5,268.4 462.5,268.3 462.4,268.3 452,257.9 403.2,257.9 
			393.5,248.2 376.9,248.2 376.9,244.8 369,244.8 369,252.6 376.9,252.6 376.9,249.3 393,249.3 402.8,259 451.6,259 460.9,268.3 
			427.4,268.3 415,280.7 352.1,280.7 340.2,268.8 392.6,268.8 392.6,272.2 400.5,272.2 400.5,264.3 392.6,264.3 392.6,267.7 
			339.1,267.7 322.1,250.7 330.5,250.7 344.4,236.8 380.5,236.8 380.5,240.2 388.4,240.2 388.4,232.3 380.5,232.3 380.5,235.7 
			368.8,235.7 392.3,212.2 439.7,212.2 465.1,237.6 509.1,237.6 509.1,241 517,241 517,233.1 509.1,233.1 509.1,236.5 465.6,236.5 
			441.3,212.2 454.3,212.2 472.9,193.5 481.6,193.5 481.6,196.9 489.5,196.9 489.5,189 481.6,189 481.6,192.4 472.4,192.4 
			453.8,211.1 391.8,211.1 367.2,235.7 343.9,235.7 330,249.6 281.5,249.6 264,232.1 0.3,232.1 0.3,233.2 263.5,233.2 281,250.7 
			320.5,250.7 351.7,281.8 415.5,281.8 427.9,269.4 462,269.4 471.5,278.9 581.4,278.9 543,317.3 443.4,317.3 431.5,305.4 
			419.6,305.4 419.6,301.8 411.7,301.8 411.7,309.7 419.6,309.7 419.6,306.5 431,306.5 442.9,318.4 543.4,318.4 582.9,278.9 
			617.2,278.9 617.2,282.3 625.1,282.3 625.1,274.4 		"/>
		<polygon fill="#FFFFFF" points="534,341.3 522,341.3 509.3,328.6 441.1,328.6 430.7,318.2 419.6,318.2 419.6,314.8 411.7,314.8 
			411.7,322.7 419.6,322.7 419.6,319.3 430.2,319.3 440.6,329.7 508.9,329.7 521.6,342.4 534,342.4 534,345.8 541.8,345.8 
			541.8,337.9 534,337.9 		"/>
		<polygon fill="#FFFFFF" points="493.1,349.6 485.8,342.3 439.2,342.3 428.1,331.2 419.6,331.2 419.6,327.8 411.7,327.8 
			411.7,335.7 419.6,335.7 419.6,332.3 427.6,332.3 438.7,343.4 485.3,343.4 493.1,351.2 493.1,356.6 501,356.6 501,348.7 
			493.1,348.7 		"/>
		<polygon fill="#FFFFFF" points="277.6,192.3 269.7,192.3 269.7,200.1 277.6,200.1 277.6,196.7 286.7,196.7 304.4,179.1 334,179.1 
			334,182.5 341.9,182.5 341.9,174.6 334,174.6 334,178 303.9,178 286.3,195.6 277.6,195.6 		"/>
		<polygon fill="#FFFFFF" points="250.4,226.5 257.4,226.5 257.4,223.3 305,223.3 334,194.3 334,196.3 341.9,196.3 341.9,188.5 
			334,188.5 334,192.7 304.6,222.2 257.4,222.2 257.4,219.4 250.4,219.4 250.4,222.2 0.4,222.2 0.4,223.3 250.4,223.3 		"/>
		<polygon fill="#FFFFFF" points="233.7,210.3 0.6,210.3 0.6,211.4 234.1,211.4 269.7,175.8 269.7,178.5 277.6,178.5 277.6,170.6 
			269.7,170.6 269.7,174.3 		"/>
		<polygon fill="#FFFFFF" points="215.3,292.9 189.3,292.9 150.6,254.2 0.3,254.2 0.3,255.3 150.2,255.3 188.8,294 214.2,294 
			214.2,308.6 210.8,308.6 210.8,316.5 218.6,316.5 218.6,308.6 215.3,308.6 		"/>
		<polygon fill="#FFFFFF" points="166.3,192.9 226.4,192.9 243.2,176.1 243.2,178.5 251.1,178.5 251.1,170.6 243.2,170.6 
			243.2,174.6 226,191.8 167.4,191.8 183.3,175.9 218,175.9 232,161.9 241.4,161.9 241.4,164.3 249.3,164.3 249.3,156.4 
			241.4,156.4 241.4,160.8 231.6,160.8 217.6,174.8 182.9,174.8 158.6,199.1 0.4,199.1 0.4,200.2 159,200.2 		"/>
	</g>
	<g opacity="0.36" clip-path="url(#SVGID_2_)">
		<g>
			<polygon fill="#FFFFFF" points="416.8,295.2 416.1,294.5 446.5,261.7 750.1,261.7 750.1,262.7 446.9,262.7 			"/>
		</g>
		<g>
			
				<rect x="409.5" y="290.8" transform="matrix(-1 -1.224647e-16 1.224647e-16 -1 826.8909 590.074)" fill="#FFFFFF" width="7.9" height="8.5"/>
		</g>
		<g>
			
				<rect x="409.5" y="305.8" transform="matrix(-1 -1.224647e-16 1.224647e-16 -1 826.8909 620.121)" fill="#FFFFFF" width="7.9" height="8.5"/>
		</g>
		<g>
			
				<rect x="409.5" y="320.8" transform="matrix(-1 -1.224647e-16 1.224647e-16 -1 826.8909 650.168)" fill="#FFFFFF" width="7.9" height="8.5"/>
		</g>
		<g>
			
				<rect x="409.5" y="335.8" transform="matrix(-1 -1.224647e-16 1.224647e-16 -1 826.8909 680.215)" fill="#FFFFFF" width="7.9" height="8.5"/>
		</g>
		<g>
			
				<rect x="502.3" y="325.5" transform="matrix(-1 -1.224647e-16 1.224647e-16 -1 1012.4461 659.4896)" fill="#FFFFFF" width="7.9" height="8.5"/>
		</g>
		<g>
			
				<rect x="500.5" y="310.1" transform="matrix(-1 -1.224647e-16 1.224647e-16 -1 1008.7946 628.6492)" fill="#FFFFFF" width="7.9" height="8.5"/>
		</g>
		<g>
			
				<rect x="490.2" y="220.3" transform="matrix(-1 -1.224647e-16 1.224647e-16 -1 988.2363 449.1914)" fill="#FFFFFF" width="7.9" height="8.5"/>
		</g>
		<g>
			
				<rect x="441.6" y="186.7" transform="matrix(-1 -1.224647e-16 1.224647e-16 -1 891.1353 381.8925)" fill="#FFFFFF" width="7.9" height="8.5"/>
		</g>
		<g>
			
				<rect x="400.1" y="177.5" transform="matrix(-1 -1.224647e-16 1.224647e-16 -1 808.1093 363.5062)" fill="#FFFFFF" width="7.9" height="8.5"/>
		</g>
		<g>
			
				<rect x="362.9" y="128.4" transform="matrix(-1 -1.224647e-16 1.224647e-16 -1 733.6447 265.3918)" fill="#FFFFFF" width="7.9" height="8.5"/>
		</g>
		<g>
			
				<rect x="533" y="160.7" transform="matrix(-1 -1.224647e-16 1.224647e-16 -1 1073.8992 329.932)" fill="#FFFFFF" width="7.9" height="8.5"/>
		</g>
		<g>
			
				<rect x="350.8" y="208.7" transform="matrix(-1 -1.224647e-16 1.224647e-16 -1 709.4153 425.8286)" fill="#FFFFFF" width="7.9" height="8.5"/>
		</g>
		<g>
			
				<rect x="374.4" y="229.8" transform="matrix(-1 -1.224647e-16 1.224647e-16 -1 756.6809 468.1334)" fill="#FFFFFF" width="7.9" height="8.5"/>
		</g>
		<g>
			
				<rect x="362.9" y="243.3" transform="matrix(-1 -1.224647e-16 1.224647e-16 -1 733.6447 495.1512)" fill="#FFFFFF" width="7.9" height="8.5"/>
		</g>
		<g>
			
				<rect x="261.6" y="290.2" transform="matrix(-1 -1.224647e-16 1.224647e-16 -1 530.9993 588.8522)" fill="#FFFFFF" width="7.9" height="8.5"/>
		</g>
		<g>
			
				<rect x="261.6" y="316.6" transform="matrix(-1 -1.224647e-16 1.224647e-16 -1 530.9993 641.6398)" fill="#FFFFFF" width="7.9" height="8.5"/>
		</g>
		<g>
			
				<rect x="261.6" y="335.8" transform="matrix(-1 -1.224647e-16 1.224647e-16 -1 530.9993 680.215)" fill="#FFFFFF" width="7.9" height="8.5"/>
		</g>
		<g>
			
				<rect x="234" y="242.5" transform="matrix(-1 -1.224647e-16 1.224647e-16 -1 475.9327 493.4552)" fill="#FFFFFF" width="7.9" height="8.5"/>
		</g>
		<g>
			
				<rect x="234" y="256.2" transform="matrix(-1 -1.224647e-16 1.224647e-16 -1 475.9327 520.9601)" fill="#FFFFFF" width="7.9" height="8.5"/>
		</g>
		<g>
			
				<rect x="262.8" y="229.8" transform="matrix(-1 -1.224647e-16 1.224647e-16 -1 533.4773 468.1334)" fill="#FFFFFF" width="7.9" height="8.5"/>
		</g>
		<g>
			
				<rect x="125.7" y="197.7" transform="matrix(-1 -1.224647e-16 1.224647e-16 -1 259.2453 403.8872)" fill="#FFFFFF" width="7.9" height="8.5"/>
		</g>
		<g>
			
				<rect x="209.1" y="128.9" transform="matrix(-1 -1.224647e-16 1.224647e-16 -1 426.0973 266.4264)" fill="#FFFFFF" width="7.9" height="8.5"/>
		</g>
		<g>
			
				<rect x="250" y="117.3" transform="matrix(-1 -1.224647e-16 1.224647e-16 -1 507.9631 243.0538)" fill="#FFFFFF" width="7.9" height="8.5"/>
		</g>
		<g>
			
				<rect x="331.6" y="168" transform="matrix(-1 -1.224647e-16 1.224647e-16 -1 671.1441 344.5542)" fill="#FFFFFF" width="7.9" height="8.5"/>
		</g>
		<g>
			
				<rect x="331.6" y="153.9" transform="matrix(-1 -1.224647e-16 1.224647e-16 -1 671.1441 316.3914)" fill="#FFFFFF" width="7.9" height="8.5"/>
		</g>
		<g>
			
				<rect x="331.6" y="139.9" transform="matrix(-1 -1.224647e-16 1.224647e-16 -1 671.1441 288.2286)" fill="#FFFFFF" width="7.9" height="8.5"/>
		</g>
		<g>
			
				<rect x="474" y="310.1" transform="matrix(-1 -1.224647e-16 1.224647e-16 -1 955.8045 628.6492)" fill="#FFFFFF" width="7.9" height="8.5"/>
		</g>
		<g>
			
				<rect x="474" y="286.7" transform="matrix(-1 -1.224647e-16 1.224647e-16 -1 955.8045 581.8604)" fill="#FFFFFF" width="7.9" height="8.5"/>
		</g>
		<g>
			
				<rect x="494.1" y="258.1" transform="matrix(-1 -1.224647e-16 1.224647e-16 -1 995.3032 523.9309)" fill="#FFFFFF" width="7.1" height="7.6"/>
		</g>
		<g>
			<polygon fill="#FFFFFF" points="750.3,252 487.6,252 470.1,233 421.4,233 407.5,248.1 366.8,248.1 366.8,247.1 407,247.1 
				420.9,232 470.5,232 488,251 750.3,251 			"/>
		</g>
		<g>
			<polygon fill="#FFFFFF" points="749.9,240.1 592.3,240.1 561.8,207.2 507,207.2 492.4,191.4 446.1,191.4 446.1,190.4 
				492.8,190.4 507.5,206.2 562.3,206.2 592.7,239.1 749.9,239.1 			"/>
		</g>
		<g>
			<polygon fill="#FFFFFF" points="430.3,232.9 399.2,199.3 336.2,199.3 323.7,212.7 288.6,212.7 288.6,211.7 323.3,211.7 
				335.8,198.3 399.7,198.3 431.1,232.2 			"/>
		</g>
		<g>
			<polygon fill="#FFFFFF" points="278.6,294.9 265.5,294.9 265.5,293.9 278.2,293.9 296.9,273.7 359,273.7 383.5,247.2 
				384.3,247.9 359.4,274.7 297.3,274.7 			"/>
		</g>
		<g>
			<polygon fill="#FFFFFF" points="481.4,315.1 480.6,314.4 517.5,274.6 749.9,274.6 749.9,275.6 517.9,275.6 			"/>
		</g>
		<g>
			<polygon fill="#FFFFFF" points="530.2,207.1 475.9,148.4 405.7,148.4 391.6,133.2 366.8,133.2 366.8,132.2 392,132.2 
				406.1,147.4 476.3,147.4 476.5,147.6 530.9,206.4 			"/>
		</g>
		<g>
			<rect x="494.1" y="224.1" fill="#FFFFFF" width="84.5" height="1"/>
		</g>
		<g>
			<rect x="354.7" y="212.4" fill="#FFFFFF" width="57.8" height="1"/>
		</g>
		<g>
			<polygon fill="#FFFFFF" points="310.8,274.6 285.5,247.2 238,247.2 238,246.2 286,246.2 311.6,273.9 			"/>
		</g>
		<g>
			<g>
				<polygon fill="#FFFFFF" points="378.3,234.6 357.8,234.6 348,224 299.1,224 279.2,202.4 129.6,202.4 129.6,201.4 279.6,201.4 
					299.6,223 348.5,223 358.2,233.6 378.3,233.6 				"/>
			</g>
			<g>
				<polygon fill="#FFFFFF" points="266.7,234.6 248.8,234.6 218.9,202.3 219.6,201.6 249.2,233.6 266.7,233.6 				"/>
			</g>
			<g>
				<polygon fill="#FFFFFF" points="168.5,202.3 167.8,201.6 207.5,158.7 308.2,158.7 320.2,171.6 335.6,171.6 335.6,172.6 
					319.7,172.6 307.8,159.7 208,159.7 				"/>
			</g>
		</g>
		<g>
			<polygon fill="#FFFFFF" points="750.3,228 601.2,228 562.5,186.2 536.4,186.2 536.4,165.8 537.4,165.8 537.4,185.2 562.9,185.2 
				601.6,227 750.3,227 			"/>
		</g>
		<g>
			<polygon fill="#FFFFFF" points="520,329.2 508.3,329.2 508.3,328.2 519.6,328.2 533.6,313 568.4,313 592.7,286.7 750.1,286.7 
				750.1,287.7 593.2,287.7 568.8,314 534.1,314 			"/>
		</g>
		<g>
			<polygon fill="#FFFFFF" points="507.9,314.7 507.2,314 525.2,294.5 585.7,294.5 585.7,295.5 525.6,295.5 			"/>
		</g>
		<g>
			<polygon fill="#FFFFFF" points="416.1,182.3 404.1,182.3 404.1,181.3 415.7,181.3 430.5,165.3 494.1,165.3 494.1,166.3 
				430.9,166.3 			"/>
		</g>
		<g>
			<polygon fill="#FFFFFF" points="331.6,158.7 320.5,158.7 310.1,147.4 241.7,147.4 229,133.7 212.1,133.7 212.1,132.7 
				229.4,132.7 242.1,146.4 310.5,146.4 321,157.7 331.6,157.7 			"/>
		</g>
		<g>
			<polygon fill="#FFFFFF" points="331.6,144.6 323.1,144.6 312,132.6 265.3,132.6 255.5,122 256.2,121.4 265.7,131.6 312.4,131.6 
				323.5,143.6 331.6,143.6 			"/>
		</g>
		<g>
			<polygon fill="#FFFFFF" points="447.5,310.6 417.4,310.6 417.4,309.6 447.1,309.6 464.8,290.4 477.9,290.4 477.9,291.4 
				465.2,291.4 			"/>
		</g>
		<g>
			<polygon fill="#FFFFFF" points="412.5,325.6 390.8,325.6 371.1,304.3 302.1,304.3 286.2,321.5 264.2,321.5 264.2,320.5 
				285.7,320.5 301.6,303.3 371.6,303.3 391.3,324.6 412.5,324.6 			"/>
		</g>
		<g>
			<polygon fill="#FFFFFF" points="292.9,341.5 264.2,341.5 264.2,340.5 292.5,340.5 312.9,318.4 362.9,318.4 382.5,339.6 
				412.5,339.6 412.5,340.6 382.1,340.6 362.5,319.4 313.4,319.4 			"/>
		</g>
	</g>
	<g opacity="0.2" clip-path="url(#SVGID_2_)">
		<path fill="#D7F0FF" d="M182.5,135.8l-4.8-2.1c-1.1-3.1-2.1-5-2.1-5c-3.6-0.4-9.6,0.4-11.7,1c-2.1,0.6-3.4,3-5.9,2.4
			c-2.5-0.6-7.5,0.9-8.8,1.1c-1.3,0.2-1.5,0.2-2.9,0.8c-1.3,0.6-4.2,1.7-4.2,1.7s0.8,1.7,1.3,1.7c0.6,0,1.9-2.1,0.6,0
			s1.7,2.9-1.3,2.1c-3.1-0.8-1.7-1-4.6-1c-2.9,0-6.9,1.4-6.9,1.4v1.5h1.3l1.5,1h3.3c0,0,0.4,0.6,1.3,0c1-0.6,1-0.6,1-0.6l-0.2,2.1
			l-2.5,1.4h-2.9l-2.9,1.9v1c0,0-0.8,2.1,0,2.3c0.8,0.2,1.1,0.8,1.1,1.4c0,0.6-1.5,3.1-1.5,3.1s-1.1,0.4,0,1
			c1.1,0.6,2.1,1.7,2.1,1.7s1.5-1.4,2.9-2.5c1.3-1,5-2.1,5-2.1l1.5-0.6l2.5,0.6c0,0,1.9-0.4,2.5-0.8c0.6-0.4,2.3-1.2,2.3-1.2
			s1.7-0.2,2.3-0.2c0.6,0,4.6,0.4,4.6,0.4l3.1,0.8l0.8,1.2c0,0,0.2,1.2,1,1.4c0.8,0.2,2.3,2.9,2.3,2.9c0.2,1.9-1.1,5.2-1.1,5.2
			c2.1,2.9,3.1,3.9,3.1,4.6c0,0.6,0.4,2.5,0.4,2.5s-0.8-1.2-1.3,0c-0.6,1.2-0.6,1.2-0.6,1.2l-1.7,3.1l-1.3,3.1c0,0-0.8,1.9-1,2.7
			c-0.2,0.8-2.1,3.3-2.1,3.3l-1.4,1.2c0,0,1.1,1,0,2.1c-1.1,1-2.1,4.1-2.1,4.1l-0.4,1.4c0,0-0.8,2.3-0.8,2.9c0,0.6,0.4,3.5,0.4,3.5
			s1.3,1.9,1.7,2.5c0.4,0.6,2.1,3.9,2.1,3.9l2.1,2.3c0,0,0.2,0.2,0.6,1.7c0.4,1.4,1,6.8,1,6.8s0.6,2.3,1.1,3.5
			c0.6,1.2,2.1,4.3,2.1,4.3l2.1,1.4c0,0,0.8,1.9,1,0c0.2-1.9,0.8-1.2,0-2.9c-0.8-1.7,0.2,0-0.8-1.7c-1-1.7-1.1-1.2-1.3-2.7
			c-0.2-1.4,0-0.2-0.2-1.4c-0.2-1.2-2.3-2.3-0.2-1.2c2.1,1,2.9,2.5,3.3,3.3c0.4,0.8,1,3.1,1.3,3.9c0.4,0.8,1.5,3.5,1.5,3.5
			s0,3.1,0.2,4.1c0.2,1,0,4.1,0,4.1s2.7,4.1,3.4,4.8c0.8,0.6,2.9,2.3,3.4,2.7c0.6,0.4,4.4,1.9,4.4,1.9s2.7,1,3.4,0
			c0.8-1,2.5-1.4,2.5-1.4h2.3c0,0,2.3,1.5,2.9,1.9c0.6,0.4,2.3,1.2,2.3,1.2l2.7,1.7h1.7c0,0,0.8,1.7,1.1,2.3
			c0.4,0.6,0.8,2.1,1.1,2.7c0.4,0.6,1.5,2.3,1.5,2.3s1,1,1.5,1.4c0.6,0.4,1.5,1,2.3,1.4c0.8,0.4,1.7,1.2,2.9,1.2c1.1,0,3.6,0,3.6,0
			h1.3h1.5l1.3-1l1.5,3.3h-1l-1.5,4.1l-1,1.9c0,0-0.8,1.7-1.1,2.3c-0.4,0.6-2.3,2.9-2.3,2.9l-0.8,1.7c0,0,0.2,2.9,0.6,3.7
			c0.4,0.8,1.3,2.1,1.3,2.7c0,0.6-1.1,2.5-1.1,2.5h-1.7c0,0,0.4,2.1,1,2.7c0.6,0.6,1.1,0.4,1.7,2.3c0.6,1.9,2.5,5.2,2.5,5.2l3.4,8.1
			c0,0-1.1,1.2,0,1.4c1.1,0.2,4.4,1.4,5,1.9c0.6,0.4,1.9,1.2,2.7,1.7c0.8,0.4,2.7,2.1,3.3,2.5c0.6,0.4,0.8,0.4,1.5,1.2
			c0.8,0.8,2.7,2.1,2.7,2.1v2.3c0,0,0.6,0.8,0,1.7c-0.6,0.8-1,2.9-1,2.9s-0.6-2.3,0,2.3c0.6,4.6,1.1,6.6,1.2,7.5
			c0.1,0.8,1.5,24.6,1.5,24.6l1.9,4.3v2.3c0,0,1.3,2.3,1.5,2.9c0.2,0.6,0,2.1,0,2.1l0.1,1.9v1.9c0,0-0.3,1.4,0,2.3
			c0.3,0.8,2.4,4.1,3,5c0.6,0.8,1.5,1.7,2.1,2.3c0.6,0.6,2.7,3.3,3.1,3.3c0.4,0,2.9,2.7,3.6,2.7c0.8,0,4.6,0.6,4.8,0
			c0.2-0.6,0.2-1,0-1.9c-0.2-0.8-0.2-1-1.1-1.9c-1-0.8-1-0.8-1-0.8l-1.9-1.2c0,0-1-1-0.8-2.5c0.2-1.4,1.1-3.1,1.1-3.1s0.2-1,0.2-1.7
			s0-0.6,0-0.6l-1.7-2.1c-0.4-2.9-0.4-2.9-0.4-2.9l0.8-1.7c0,0,0.4-0.4-0.2-1.9c-0.6-1.4-1.1-2.1-1.1-2.7s-1.1,0,0-0.6
			c1.1-0.6,1.1-0.6,1.1-0.6s1.1,0.6,1.7,0.6c0.6,0,1.3,0.4,1.5-0.8c0.2-1.2,0.4-1.2,0.4-2.7c0-1.4,0.6-2.7,0.6-2.7s-0.5-0.8,0.9-0.4
			c1.4,0.4,1.8,1.7,2.5,1c0.8-0.6,1.3-1.2,2.3-3.1c1-1.9,1-1.9,1-1.9s1.9-0.4,0-1c-1.9-0.6-3.1-1.2-3.1-1.2s-0.4,0,0-1.2
			c0.4-1.2,0.8-1.9,1.3-1.9c0.6,0,0.6,0,0.6,0s1.7,1,2,0.8c0.3-0.2,0.3,0,1.3-0.6c1-0.6,1.5-1,2.1-1.7c0.6-0.6,1.5-0.2,2.1-1.9
			c0.6-1.7,1-1.2,1.1-2.7c0.2-1.4-0.8-0.6,0-2.3c0.8-1.7,1.3-2.1,2.1-3.9c0.8-1.9,1.1-2.9,1.1-2.9c0-2.1,1.5-6.4,1.5-6.4
			s0.8-0.2,1.3-0.4c0.6-0.2,0.6,0,1.7-0.6s4.6-1.7,4.6-1.7s0.4,0.2,1-1c0.6-1.2,1-1.9,1.3-3.7c0.4-1.9,0-3.3,0-3.3l0.2-8.9l2.5-3.7
			c0,0,0.8-0.8,1.7-2.5c1-1.7,1.5-1.9,1.7-2.7c0.2-0.8,0.8-0.8,1.5-2.7c0.8-1.9,1.5-3.3,1.5-3.3c-0.2-1.7-0.2-2.5-1-3.3
			c-0.8-0.8-0.8-0.2-3.4-2.3c-2.7-2.1-2.5-2.5-4.4-3.1c-1.9-0.6-5.5-0.8-5.5-0.8c-2.3-0.4-1.1,0.2-4.6-1.4c-3.4-1.7-5.4-1.7-5.4-1.7
			s-1.3,0-1.9,0c-0.6,0-2.7,0.6-2.7,0.6l0.4-3.9c0,0-0.2-2.3-0.6-3.1c-0.4-0.8,0-0.4-1.3-2.1c-1.3-1.7-2.3-2.5-3.3-2.9
			c-1-0.4-3.1-0.4-3.1-0.4s-0.6-0.4-1.3-1.4c-0.8-1,0-0.8-3.3-2.5c-3.3-1.7-3.1,1.4-5.7-1.4c-2.7-2.8-1.3-0.9-2.7-2.8
			s-1.3-1.9-1.3-1.9l-2.9-1.4l-2.5,0.6c-3.4-2.1-4.4-2.1-4.4-2.1l-2.1,2.1l-0.8,1.7c-0.8-2.1-0.8-2.1-0.8-2.1l-1.3-2.3
			c0,0-1.3-0.4-1.9-0.4c-0.6,0-2.7,1-2.7,1l-0.6,3.5l-1.7,1.9l-1.1,1l-5.7,1.1l-3.3-2.4c0,0-1.3-1.4-2.1-3.1c-0.8-1.7-1-0.8-1-2.7
			c0-1.9-0.2,1,0-1.9c0.2-2.9,1.1-3.5,0.6-5.2c-0.6-1.7,1-0.8-0.6-1.7c-1.5-0.8-2.3-0.8-2.9-0.8c-0.6,0-1.1,1-1.7,0
			c-0.6-1-0.2,0.6-0.6-1c-0.4-1.7-0.8,0.2-0.4-1.7c0.4-1.9,1-3.1,1-3.1l0.4-1.2c0,0,0.2-0.2-0.4-1.4c-0.6-1.2-0.4-1.4-1.7-2.3
			s0-0.6-1.3-0.8c-1.3-0.2-2.3,0-2.3,0.8s0,3.1,0,3.1l-0.6,1l-1.1,1c-1.7,0.2-3.4,0.8-3.4,0.8l-3.6-1l-1.1-2.1l-1.3-3.3
			c0,0,0.4-3.5,0.6-4.1c0.2-0.6,1.7-4.1,1.7-4.8c0-0.6-0.6-1.4,0-2.5c0.6-1,0.4-1.4,1.9-2.5c1.5-1,2.5-1.7,3.3-1.9
			c0.8-0.2,3.3-0.8,3.3-0.8s0-0.4,1.3-0.2c1.3,0.2,3.4,0.6,3.4,0.6l1,0.6l1.1-0.2c0,0,1-0.6,1.5-1c0.6-0.4,1.5-1.2,1.5-1.2
			s0-0.4,1.3-0.4s4.4,0.4,4.4,0.4s0.8,0,1.1,0.8c0.4,0.8,0.8,1.4,0.8,2.7c0,1.2,0,3.9,0,3.9s-0.2,2.1,1.5,2.1c1.7,0,3.8,0,4-0.6
			c0.2-0.6,0.4,1.9,0.2-0.6c-0.2-2.5-0.2-2.9-0.6-3.7c-0.4-0.8-0.4-0.6-0.6-1.9c-0.2-1.2-0.2-1-0.2-2.3c0-1.2-0.6,0.4,0-1.2
			c0.6-1.7,0.6-1.2,1.9-2.9c1.3-1.7,1-1,2.9-2.5c1.9-1.4,3.3-2.1,3.8-2.7c0.6-0.6,0.8,0,1.5-1.4c0.8-1.4,1.3-1.2,2.1-2.9
			c0.8-1.7,0.8-2.1,1.7-3.3c1-1.2,1-0.8,2.1-2.5c1.1-1.7,3.1-3.3,3.1-3.3s0.6-0.4,1.1-0.4c0.6,0,1,0.2,1.9,0c1-0.2,1.3,0.4,1.9-1.4
			c0.6-1.9,0.8-2.3,1.5-3.1c0.8-0.8,1.3-1.2,2.1-1.9c0.8-0.6,2.5-1.9,2.5-1.9c0.4,1.4,0.2,3.3,0.2,3.3l1,1c0,0,2.1,0.6,2.7-0.6
			c0.6-1.2,1.3-2.3,1.3-2.3s1.1-1,1.7-1c0.6,0,0.8,0.2,1.7,0.2c1,0,0.8,0.8,2.1,0c1.3-0.8,2.5-1.4,2.5-2.1c0-0.6,1.1,0.4,0-0.6
			c-1.1-1-1.3-1.2-2.1-1c-0.8,0.2-0.8,0.2-0.8,0.2h-3.3c0,0-1-0.8-0.2-1.7c0.8-0.8,0.8-0.8,0.8-0.8s-1.6-0.6-4.8,0
			c-3.2,0.6-3.6-1-3.6-1s0-0.3,0.4-0.6c0.4-0.3,0.9-0.6,2.1-1.1c1.2-0.5,2.5-0.8,3.6-0.8c1.1,0,2.9,0,3.3,0s1.7,0.2,2.3,0
			c0.6-0.2,2.1-0.1,2.6-0.2c0.5-0.1,2-0.1,2.5-0.2c0.5-0.1,2.6,0.6,3.8-0.5s1.5-1.1,2.2-1.9c0.7-0.7,1.2-0.6,1.2-1.8
			s-0.1-1.9-0.1-1.9s-0.3-0.8-0.5-1.3c-0.2-0.5-0.1-1.6-0.6-1.4c-0.5,0.1-1.1,0.6-1.1,0.6c-0.6-0.4-1.1-0.8-1.2-1.2
			c-0.1-0.4-0.8-1.3-0.8-1.3s-0.3-0.1-0.4-0.6c-0.1-0.5-0.2-1.9-0.1-2.2c0.1-0.3,0.3-0.6,0.3-1s0.3-0.4,0.2-1.1
			c-0.1-0.7-0.3-1.6-0.3-1.6s-0.3-0.6-1-0.7c-0.7-0.1-0.9-0.6-2.2,0.2s-1.8,1.2-2.1,1.3c-0.3,0.1-0.3,0.2-0.8,0.4
			c-0.5,0.2-0.5,0.2-0.5,0.2s0.8,0.3,0,0c-0.8-0.3-2.4-1.7-2.4-1.7s-0.5-0.9-0.5-1.3c0-0.4-0.1-1-0.1-1l-3.2-2.4l-1.8-0.9
			c0,0-2.3,0-2.6,0.1c-0.3,0.1-1.9,1.1-1.9,1.1l-0.4,0.7l-0.3,1.7l-1.1,0.6c0,0,0,0.1-0.5,0c-0.5-0.1-1.3-0.1-1.3-0.1v1.6l0.1,1.6
			l0.2,2.1c0,0,0,1,0,1.7c0,0.6,0.1,0.8,0,1.3c-0.1,0.5-0.3,1.2-0.8,1.3c-0.5,0.1-1.2,0.1-1.2,0.1s-1.4,0.5-1.8,0.8
			c-0.4,0.3-1.2,0.9-1.2,0.9l-1,0.8c0,0-0.2,0.7-0.5,1.6c-0.3,0.8-0.6,1.4-0.9,1.7c-0.3,0.2-1.1,0.9-1.5,1c-0.5,0.1-1.1-0.1-1.5-0.3
			c-0.5-0.2-1,0.2-1.1-0.7c-0.2-0.9-0.2-1.2-0.2-1.8c0-0.5,0-1.9,0.1-2.4c0.1-0.5-0.1,0.2,0.1-0.5c0.2-0.7,0.2-1.6,0.2-1.6
			s-0.3-0.4-1.2-0.6c-1-0.2-3.2-0.7-3.7-0.8c-0.6-0.1-1.1-0.2-1.1-0.2s-0.6-0.2-1.4-0.6c-0.9-0.4-1.7-0.3-2.2-0.8
			c-0.5-0.5-1-0.6-1.1-1.7c-0.1-1-0.4-0.9,0-2c0.4-1,0.1-1.1,1-2.5c0.9-1.3,1.3-1.8,2.5-2.5c1.1-0.7,1.1-0.6,2.1-1.1
			c1-0.5,1.8-0.6,2.4-0.9c0.6-0.3,1.4-0.5,2.4-1c1-0.5,3.2-0.8,3.2-0.8l0.5-0.2c0,0,0.9-0.1,1.1-0.6c0.2-0.5,0.6-0.7,0.7-1.6
			c0.1-0.8,0-1,0.5-1.7c0.5-0.6,1.1-1.4,1.1-1s0.1,1.4,0.1,1.4c0.9,0.4,1.8,0.4,2.1,0.4c0.3,0,1.1-0.6,1.3-0.9
			c0.2-0.3,1.4-1.2,1.7-1.4c0.3-0.2,1.1-0.6,1.5-0.6c0.5,0,1,0.3,1.6,0c0.7-0.3,1.7-0.6,2.1-0.9c0.4-0.3,1.3-0.6,1.3-1
			s0.2-0.7-0.1-1.1c-0.3-0.4-0.4-0.8-0.8-0.8c-0.4,0-0.9-0.1-1.3,0.3c-0.5,0.4-1.1,0.9-1.4,1.2c-0.4,0.3,0.3,0.2-1.3,0.6
			c-1.6,0.4-2.8,0.7-3.1,0.7c-0.3,0,0.2,0.9-0.3,0c-0.5-0.9-0.7-1.8-0.7-1.8c-0.3-0.6-0.7-0.6-1-0.9c-0.3-0.3-0.6-0.4-0.6-1.3
			c0-0.9,0.1-1.4,0.1-1.9s0.3-0.9-0.3-0.9c-0.6,0-0.7,0-1.2,0c-0.6,0-0.7,0-1.2,0.3c-0.6,0.3-1.1-0.1-1.7,1.1
			c-0.7,1.2-1.3,2.7-1.6,3.3c-0.3,0.6-0.5,1.1-0.5,1.1l-1.1,1.1c0,0-1.9,0.2-2.7,0.2c-0.8,0-2-0.2-2.5-0.3c-0.5-0.1-2.7-0.6-3.2-0.7
			c-0.5-0.1-1.9-0.2-2.8-0.2s-1.1,0-1.8,0c-0.7,0-0.7,0-0.7,0s-0.9,0.3-1.4,0.5c-0.6,0.2-1.6,0.7-2.1,0.9c-0.5,0.2,0.1,0.6-1.1,0.3
			c-1.2-0.3-2.2-0.5-2.5-0.7c-0.3-0.2-0.5-0.4-1.4-0.4c-1,0-0.8,0.1-1.5,0c-0.8-0.1-0.8-0.1-0.8-0.1s0.4-1.2-0.6-1.4
			c-1-0.2-1.1-0.2-2.8-0.2c-1.6,0-3.1,0.2-3.9,0c-0.9-0.2-1.5-0.1-2.4-0.4c-0.9-0.3-1.1-0.9-2.6-1.1c-1.5-0.2-1.7-0.4-2.5-0.2
			c-0.8,0.2-3.6,0.6-4.6,0.8c-1,0.2-2,0.5-3.3,0.8s-2.4,0.8-3.3,0.9C184.4,135.1,183.5,136.2,182.5,135.8z"/>
		<path fill="#D7F0FF" d="M222.5,128.6c0,0-1.1,0.2-1.8-0.5c-0.7-0.7-0.5-0.3-1.1-1c-0.7-0.7-1.9-1.1-2.9-1.8
			c-1-0.6-0.5-0.6-1.6-0.7c-1.1-0.1-2.9-0.4-3.2,0c-0.3,0.4-2,0.7-2,0.7s-0.7,0.1-1.1,0.5c-0.5,0.4-1.8,1.7-1.8,1.7s-0.7,0.5,0,0.6
			c0.7,0.1,1,0.5,1.2,0.5c0.3,0,0.6,0,1.1,0c0.5,0,0.8,0.1,1.2,0c0.5-0.1,2,0,2,0s0.5-0.5,0.5,0c0,0.6,0.2,1.7,0.2,1.7
			s-0.2,0.5,0,0.9c0.2,0.4,0.9,2,0.9,2l1.2,0.6h1.4h1.2c0,0,0.5-0.6,0.9-0.9c0.4-0.3,0.4-0.5,0.9-0.5c0.5,0,4,0.4,4,0.4
			c0.8,0.7,3,0.8,3.3,1c0.3,0.2,0.4,0.9,1,0c0.6-0.9,1.7-1.3,1.7-1.3s0.5,0.6,0.8-0.2c0.3-0.8,0.7-1.1,0.5-2c-0.2-0.8-1-1.3-0.6-1.8
			c0.4-0.5,0.9-0.3,0.6-1.2c-0.2-0.9,0-1.1-1-1.1c-1.1,0-1.9,0.5-2.4,0.8c-0.5,0.3-1.1,0.8-1.1,0.8s-0.5,0.7-1.2,0.7
			C224.4,128.6,222.5,128.6,222.5,128.6z"/>
		<path fill="#D7F0FF" d="M251.7,127.2c-0.3,0.4-0.4,0.2-0.4,0.2s-0.1,0.2,0,1.2c0.1,1,0.4,1.5,0.4,1.5l1.8,1.4l1.6-1.7
			c0,0,2.5,0.7,2.8,0.7s2.8,0.2,2.8,0.2s0.4-0.2,0.8,0c0.4,0.2,1.7,0.7,1.7,0.7s-0.1-0.9,0.5,0c0.6,0.9,1.1,1.3,1.1,2
			c0,0.6-0.4,1.9,0,2.2c0.4,0.3-0.4,0.4,0,1c0.4,0.6,0.4,1.2,0.1,2c-0.3,0.7,0.3,0.3-0.3,0.7c-0.6,0.4-0.7-0.6-1.3,0
			c-0.7,0.6-1.1,0.9-1.4,1.2c-0.3,0.3-0.7,0-0.7,0l-0.4,0.6c0,0-0.2,0.4-0.2,0.8c0,0.4,0.5,2,0.5,2l2.6,2.3c0,0,0.6-0.5,1,0
			c0.4,0.5,1.5,0.5,1.9,0.6c0.4,0.1,1,0.2,1.6,0c0.7-0.2,1.5-0.9,1.5-0.9s0.6,0.2,0-1c-0.6-1.2-0.2-0.9-1.2-1.7
			c-1.1-0.7-1.1-0.7-1.1-0.7s1.3-0.7,1.7-0.7s1,0.4,1.2,0.8c0.3,0.4-0.4,0.3,0.3,0.4c0.7,0.1,1.1-0.4,1.1-0.4s0-0.6,0-1.3
			c0-0.7,0.7-1.6-0.5-2.1c-1.1-0.5-1.1-0.5-1.1-0.5s-1-0.9,0.3-0.7c1.2,0.2,1,0.3,1.5,0.4c0.6,0.1,2.3,0.5,1.4-1.9
			c-0.9-2.4-1.8-3.7-1.8-3.7l-1-0.7l-0.1-0.7c0,0,0.1-0.2,0.3-0.6c0.2-0.4,0.6-1.6,0.3-1.4c-0.3,0.2-0.7-0.8-1.3-0.8
			c-0.7,0-0.9,0.4-1.5,0c-0.7-0.4-1.1-0.7-1.7-0.9c-0.7-0.2-0.4,0.1-1.1-0.5s-1.4-1-1.4-1c-1.1-0.2-2.4-0.6-3-0.6
			c-0.6,0-0.3-0.5-1.3,0c-1.1,0.5-1.1,0.8-1.9,0.9c-0.9,0.1,0.5-0.3-0.9,0.1c-1.3,0.4-2.2,0.3-2.2,0.3s0.1-0.4-0.2-0.6
			C254.1,126,253,125.3,251.7,127.2z"/>
		<path fill="#D7F0FF" d="M272.9,118c0,0,17.2-4,17.7-3.9c0.5,0.1,0,1,0,1l0.2,1l-1.5,1c0,0,0.9,0.8-1.1,0.4c-2-0.4-3.3-0.3-3.3-0.3
			s-0.9-0.1-1.4-0.1c-0.5,0-1.6,0.1-1.6,0.1l0.7,1.8l2.4,1.4l1.8,0.6c0,0,1.5,0.6,1.9,0.7c0.4,0.1,1.9,1,2.1,1.4
			c0.3,0.4,3.6,2.9,3.6,2.9s-0.1,1,0,1.4s-0.3,0.9,0,2.1c0.3,1.2,0,3.7,0,3.7s-1.4,1.9-1.9,1.9s-1.7-0.5-2.7-0.6c-1-0.2-2,0-2,0v2.7
			c0,0-0.1,1.1,0.3,2.2c0.4,1.1,1.7,3.6,1.7,3.6l0.5,1.8c0,0,0.4,0.8,0.8,1.2c0.4,0.4,1.7,2.3,2.5,2.8c0.9,0.4,2.4,1.1,2.9,1
			c0.5-0.1,1.5-0.3,2.2-1.4s1.3-1.9,1.4-2.8c0.1-0.8,2.7-5.2,2.7-5.2s1,0,1.7-0.4c0.6-0.4,0.1-0.3,1.1-0.6c1-0.3,2.5-0.7,2.9-0.7
			c0.4,0,3.2-1,3.2-1c0.8-0.8,0.8-1.2,1.1-1.5c0.4-0.2,0.9-0.3,1.3-0.8c0.4-0.4,1.4-1.4,2.4-1.1c1,0.4,4.2,0.2,4.6,0
			c0.4-0.2,3.4,0,3.4,0s1.3,0.5,1.8,0c0.5-0.5-0.3,0.6,0.5-0.5c0.8-1.1,2.4-1.5,2.5-2c0.1-0.5-0.5,0.3,0-1.7
			c0.5-2.1,0.5-0.8,0.5-2.1c0-1.2-0.4-2.6,0-2.8c0.4-0.2,1.3-0.9,1.3-0.9c1.3-0.3,3.4,0,3.4,0l0.9-0.7l0.6-1.5c0,0,0.8,0.4,0.8-1.2
			c0-1.7-0.5-1.8,0-2.5c0.5-0.7,0.8-0.8,1.4-1.2c0.6-0.4,1.9-0.4,2.5-1c0.6-0.6,2-2.1,2-2.1s0.4-0.5,0-0.7c-0.4-0.1-1.1-0.7-1.1-0.7
			s-0.6,0.7-1.4,0c-0.8-0.7-1-0.3-1.5-0.8c-0.5-0.6-0.8-1-1.7-1c-0.9,0-2.2,0.4-2.8,0.8c-0.6,0.4,0.4,0.3-0.6,0.4
			c-1,0.1-2.8,0.1-4.3,0.1s-1.7,0-3.2,0c-1.5,0-1,0.3-3.2,0c-2.2-0.3-3.4-0.3-5.5-0.3c-2,0-2.7,0.1-3.1,0c-0.4-0.1-1.9-1.1-1.9-1.1
			c-1.3-0.4-3.3-1.1-3.3-1.1s-0.1-0.8-1.3,0c-1.2,0.8-1.2,0.8-1.8,1.1c-0.6,0.3-1.1,0.6-1.1,0.6s0.4,0.1-1.7,0.1c-2,0-2.2,0.1-3.6,0
			c-1.4-0.1-1.7,0-2.4-0.1c-0.8-0.1-2.3-0.1-2.9-0.1c-0.6,0-6-0.3-6-0.3s-1.7,0.4-2.9-0.4c-1.3-0.8-2.2-0.8-3.2-0.8
			c-1,0-2.4,0-2.8,0c-0.4,0-2.8,0.3-3.4,0.7c-0.6,0.4-3.2,1.5-4.2,1.9c-1,0.4-0.6,0.6-1.7,0.8c-1,0.3-4.5,1.5-4.5,1.5
			s-2.9,0.4-3.3,0.4c-0.4,0-0.4,0-0.4,0l0,0l-3.3-0.3c-0.8,0.3-1.7,1.4-1.7,1.4s-0.9,1.1,0,2.1c0.9,1,1.1,2.3,1.7,2.3
			c0.5,0,1.4,0.6,2,0.4c0.6-0.1,0.9,0.1,1.7,0.3c0.7,0.1,2.4,1,2.4,1c1.1-0.1,0.8,0.1,1.7-0.6c0.9-0.7,1.8-1.2,1.8-1.2
			s1.7,1.9,2.4,1C271.5,120.7,272.9,118,272.9,118z"/>
		<path fill="#D7F0FF" d="M409,208.2c-0.8-0.2-5.1-0.3-5.5,0c-0.4,0.3,0.9,0.1-1.9,0c-2.8-0.1-2.9,0.1-4.1-0.2
			c-1.1-0.3-1.3-0.3-2.5-0.9c-1.3-0.6-1.3,0-2-1.1c-0.8-1.1-0.8-1.1-0.8-1.1s-1.8-1-2.3,0c-0.5,1-1,2.2-1,2.2v1.3l-0.5,0.7
			c0,0,0.9,0-1,0c-1.9,0-2.4,1.4-4.2,0c-1.8-1.4-1.3-0.9-2.4-2c-1.1-1.1-0.5-1.2-1.8-1.5c-1.3-0.3-0.6,1-2.5-0.6
			c-1.9-1.5-1.9-1.5-1.9-1.5s-2-0.7-2-1.1c0-0.4,0,0.7,0-1.1c0-1.8-0.8-1.8,0-2.6c0.8-0.8,1.7,0,1.3-1.4c-0.4-1.4,0.5-2.3-1.6-2.3
			c-2.1,0-2.1,0-4.2,1.1c-2.2,1.1-4.5,2.2-4.5,2.2s0.3,0.4-2.5,0.1c-2.8-0.3-3.6-0.4-5.1,0.4c-1.5,0.8-0.8,2.1-2.5,1.1
			c-1.8-1-3.3-1.4-3.8-1.4c-0.5,0,0.4,0.1-2.2,0.8c-2.5,0.7-4,1.2-4.8,1.9c-0.9,0.7-0.9,0.1-1.5,1c-0.6,0.9-1.3,2.6-1.7,3.6
			c-0.4,1-0.6,1.9-0.6,2.6c0,0.7,0.1,0.8,0,1.9c-0.1,1.1-0.8,2.1-1.8,2.6c-1,0.6-1.8,2.5-2.3,2.8c-0.5,0.3-0.9,1.1-1.8,1.8
			c-0.9,0.7-2.3,1.5-3.1,2.3c-0.8,0.8-2,2.9-2.9,4.4s-0.9,2.5-0.9,3.6c0,1.1-0.3,1.8,0,2.9c0.3,1.1,0.9,2.6,1.1,3.5
			c0.3,0.8,0.8,1.7,0.1,2.8s-1.5,1.1-1.4,1.9c0.1,0.8,0,2.5,0,2.5l0.6,3.9c0,0,0.4,1.4,0.4,1.8s0.6,1.7,0.6,1.7l3.2,1.1
			c0,0,1.3,5.4,1.7,5.8c0.4,0.4,2.7,1.4,2.9,1.8c0.3,0.4,2.5,2.9,2.5,2.9s1.1,1.1,1.8,1.7c0.6,0.6,1.9,1.1,2.3,1.1
			c0.4,0,2.2,0.4,2.8,0c0.6-0.4,2.7-1.5,2.7-1.5s1-0.8,1.7-0.1s0.9,1.9,2.4,0.8c1.5-1.1,2.9-1.7,4-2.1c1-0.4,2.4-1.1,3.2-1.1
			c0.8,0,2.7,0,2.7,0s1.8,0.7,2.2,1.5c0.4,0.8,0.8,1.1,1.4,1.7c0.6,0.6,0.8,1.2,1.7,1c0.9-0.2,2.4-0.6,2.4-0.6s1.8,0.8,2.2,1.4
			c0.4,0.6,1.3,1.1,1.3,1.1s0.8-1.4,0.5,1.8c-0.3,3.2-0.5,4-0.5,4.4c0,0.4,0.1,0.3-0.4,1.4c-0.5,1.1-0.9,1.8-1,2.2
			c-0.1,0.4-1.1,1.8-0.1,2.5c1,0.7,2.8,2.2,3.3,2.6c0.5,0.4,1.7-0.6,1.9,1c0.3,1.5,0.5,2.9,0.5,2.9s0.5,2.3,1.4,4.4
			c0.9,2.1,0.7,2.7,0.5,3c-0.2,0.3-0.3,0.6-0.3,0.9c0,0.3,0.4,2.1,0.4,2.1s0.3,0.4,0.3,0.7c0,0.3,0.1,0.6,0.1,1.3
			c0,0.7-0.4,1.9-0.8,2.6c-0.4,0.7-1,1.8-1.2,2.5c-0.3,0.7-0.4,1.2-0.6,1.9s-0.7,1.9-0.9,2.5c-0.2,0.6-0.8,2.1-0.6,2.4
			c0.2,0.3,1.1,1.9,1.4,2.4s5.3,10.1,5.3,10.1s-0.1,1.8,0,2.1c0.1,0.3-0.2,2.5-0.2,2.5s-0.1,0.7-0.2,1.6s0.2,3,0.2,3l1,2.2
			c0,0,0.6,0.5,1.1,1c0.6,0.5,1.1,1.2,1.3,1.7c0.2,0.4,0.4,1.1,0.7,1.4c0.3,0.3,0.7,1.3,0.7,1.3s1.6,6.3,2.9,6.6
			c1.2,0.3,2.3,0,2.3,0l1,0.1l2.6-0.9c0,0,0,0.8,1.1,0.1c1.1-0.7,1.3-1,1.6-1.1c0.3-0.1,0.5-0.3,1.2-0.4c0.8-0.1,1.8,0,2.1-0.6
			c0.3-0.6,0,0.6,1.8-1.6c1.8-2.2,3.1-3.2,3.2-3.6c0.1-0.4,1.2-1.7,1.2-1.7l1.6-1.2c0,0,1.6-0.3,1.6-0.8c0-0.5,0.3-1.1,0.5-2.1
			c0.2-0.9,0.6-1.7,0.7-2.4c0.1-0.7,0.4-1.6,1.5-2.8c1.1-1.2,2.1-1.8,2.5-2.2c0.4-0.4,0.9-0.3,1.1-1c0.2-0.7,0.5-1.9,0.5-1.9
			s0.5-0.4,0-0.9c-0.5-0.5-0.6-0.6-0.8-1.4c-0.2-0.8-0.5-0.6-0.5-1.9c0-1.2-0.4-0.5,0-1.2c0.4-0.7,2.8-5.8,2.8-5.8s2.4-0.7,2.9-1.4
			c0.5-0.7,0.9-1.3,1.8-2c1-0.6,2.2-1.7,2.3-2c0.1-0.3,0.8-1.8,0.9-2.3c0.1-0.5,0.8-1.6,0.5-3c-0.3-1.4-0.2-1.1-0.5-2.4
			c-0.3-1.2-0.3-1-0.6-2.3c-0.3-1.2-0.4-1.7-0.8-2.8c-0.4-1.1-0.5-1.1-0.7-2c-0.2-0.8-0.3-1-0.5-2.2c-0.2-1.1-0.3-2.1-0.3-2.1
			s0.3-2.1,0.4-2.6c0.1-0.5,10.9-14.9,10.9-14.9s1.3-1.2,2.2-2.8c0.9-1.6,2.1-3,2.3-3.3c0.2-0.3,0.5-0.3,1.3-2.3
			c0.9-2,0.8-1.9,1.4-3c0.7-1.1,1.2-1.8,1.5-3.1c0.3-1.3,0.3-0.3,0.3-1.3c0-1,0.5-1.8,0-1.9c-0.5-0.1-1-0.4-1.4-0.4
			c-0.5,0-1.3,0.4-1.8,0.5c-0.5,0.1-0.3,0.3-1.4,0.5c-1.1,0.2-2.3,0.5-3.5,0.5c-1.2,0-2.6,0-2.6,0s-0.7,0.1-1.2-0.1
			c-0.6-0.2-0.6,0.1-1.2-0.4c-0.7-0.5-2.2-4.7-2.2-4.7l-0.8-1c0,0-1-1.8-1.1-2.1c-0.2-0.3,0,0.2-0.8-1c-0.8-1.2-1-1.8-1.5-2.3
			c-0.6-0.5-1.3-1.2-1.3-1.2s-0.8,0-1.3-0.7c-0.6-0.7-1-0.8-1.1-1.3c-0.2-0.5-0.3-1-0.6-2c-0.3-0.9,0.5,0.9-0.3-0.9
			c-0.8-1.9-1-2.4-1-2.4l-1.5-4c0,0-0.2-0.4-0.7-1.7c-0.5-1.2-0.5-1.4-1-2.5c-0.5-1-1.1-2.5-1.1-2.5s-1.2-2.5-1.3-2.9
			c-0.1-0.4,0.2,0.2-0.1-0.4c-0.3-0.6-0.6-0.9-0.7-1.7c-0.1-0.7-0.1-1.3-0.1-1.3h0.5l1,0.6l0.6,0.5c0,0,0.3,0,1,0.5
			c0.7,0.5,1.6,1.2,2,1.6c0.4,0.3,1,0.9,1.1,1.2c0.2,0.3,0.1,0.2,0.6,1.4c0.5,1.2,1.1,2.6,1.1,2.6l0.9,1.7l1.3,2.2l0.9,2.2l0.9,2.2
			l1.2,2.9c0,0,0.1,0.2,0.9,0.9c0.8,0.7,1.3,2,1.6,2.3c0.3,0.3,0.6,0.6,0.9,1.2c0.3,0.6,0.5,0.7,0.9,1.8c0.4,1,0.5,1.6,0.7,2.2
			c0.2,0.6,0.8,1.8,0.8,1.8l1,1c0,0,0.8,0.6,1.1,0.6c0.3,0,0.9,0.1,1.5,0c0.7-0.1,2.3-0.1,3-0.6c0.7-0.5,0.4-0.3,1.3-0.8
			c1-0.5,2.1-1.6,2.6-1.8c0.5-0.2,0.1-0.2,1.3-0.6c1.2-0.4,3-0.5,3.5-0.9c0.6-0.4,0.9-0.2,1.4-1.1c0.6-0.9,1-1,1.8-2.3
			c0.9-1.2,1-1.3,1.8-2.2s0.9-0.7,1.8-1.6c1-0.8,1.1-0.6,2-1.4c1-0.8,1.3-0.8,1.9-1.9c0.6-1,1-1.7,1-2.1c0-0.4,0.9-0.7,0-1
			c-0.9-0.3-1,0-2.2-1c-1.2-1-2.1-1.4-2.4-2.3c-0.3-0.8-0.3-0.5-0.3-1.6c0-1-0.1-1.6-0.9-2.1c-0.8-0.5-0.1-0.6-0.8-0.5
			c-0.7,0.1-2.6,1.7-2.9,1.9c-0.3,0.2,0,0.1-0.9,0.6c-0.9,0.5-0.7,0.7-1.7,1c-1.1,0.3-0.8,0.6-2.1,0.4c-1.3-0.2-1.4,0-2.3-1
			c-0.9-1-1-1.3-1.3-2.1c-0.4-0.7-0.2-0.5-0.6-1.7c-0.4-1.1-0.5-0.6-0.9-2.9c-0.4-2.3-0.4-2.3-0.4-2.3v-0.8c0,0,0.4-0.1,0.8,0
			c0.4,0.1,0.8,0.2,1.1,0.3c0.3,0.1,0.6,0.3,1.2,0.5c0.7,0.2,2.2,1,2.2,1s1.4,1.1,1.8,1.3c0.4,0.2,1.5,0.9,1.9,0.9
			c0.4,0,1.1,0,1.4,0c0.4,0,0.8,0,1.1,0c0.4,0,1.5-0.2,1.9,0c0.4,0.2,1.2,1.3,1.5,1.7c0.3,0.3,1,0.9,1.4,1.3
			c0.5,0.4,1.4,0.9,1.7,0.9s1.3,0.1,2.2,0.1s0.8,0,1.5,0c0.8,0,1.7,0,2.1,0c0.4,0,1.7,0,2.1,0c0.4,0,1,0.2,1.4,0.2
			c0.5,0,0.6-0.2,1.1,0c0.6,0.2,1.7,1,2,1.1c0.3,0.1,0.4,0.4,1,0.8c0.6,0.4,1.1,1.1,1.4,1.3c0.4,0.2,1,0.7,1.2,0.8
			c0.3,0.1,1.1,0.4,1.2,0.9c0.2,0.5,0.3,0.9,0.6,1.4c0.3,0.5,0.7,0.9,0.8,1.2c0.1,0.3-0.8,0.9,0,1.1c0.8,0.2,0.8,0.2,0.8,0.2
			s3.3,1.6,3.9-0.2c0.6-1.8,3.1-2,3.1-2s0.3,1.9,0,2.2s-0.6,1.7-0.6,1.7s-0.2,0.4-0.3,1c-0.1,0.6-0.5,1.6-0.4,2.1
			c0.1,0.5,0.7,2,0.7,2l6.9,18.1c0,0,2.7,0.3,2.9,0.1c0.3-0.1,1.9-1.7,2.2-1.9c0.3-0.3,1.6-1.6,1.6-1.6s-0.5-1.7-0.6-2.6
			c-0.1-0.9-0.3-1.3-0.4-2.1c-0.1-0.8-0.1-1-0.1-2.1c0-1-0.1-1,0.1-2.6c0.3-1.5,0.3-1.6,0.6-2.6c0.4-1,0.5-1.7,1.1-2.6
			c0.6-0.9,0.8-1.2,1.3-1.7c0.5-0.5,4.3-2.2,5.3-3.8c1-1.7,1.7-2,2-2.5c0.3-0.4,0.4-0.2,1.1-0.8c0.6-0.6,1.3-0.9,1.9-1.1
			c0.7-0.2,0.4-0.4,1.3-0.2c1,0.2,2.1,0.6,2.3,0.7c0.2,0.1,0.7,0.3,0.9,0.5c0.2,0.1,0.8,0.6,1,0.7c0.2,0.1,0.5,0.3,1,0.9
			c0.5,0.6,0.7,0.7,0.9,1c0.2,0.4,0.4,0.8,0.5,1.2c0.1,0.4,0.2,1.2,0.4,1.7c0.2,0.5,0.7,1.4,0.9,1.7c0.2,0.2,1.1,0.9,1.4,1.1
			c0.3,0.2,1.1,0.6,1.3,0.7c0.3,0.2,1,0.6,1.1,0.8c0.1,0.2,0,0.3,0,0.8c0,0.4-0.2,1.3-0.2,1.3s-0.3,1.4,0,1.6
			c0.3,0.2,1.1,1.2,1.5,0.7c0.4-0.5,0.5-0.4,0.7-0.8c0.2-0.4,0-0.6,0.3-0.7c0.4,0,1.1-0.4,1.2,0.2c0.1,0.6,0.4,1.1,0.4,1.1
			s2.3,2.2,2.2,4.9c-0.1,2.7-0.8,4.8-0.8,5.1s0.3,1.5,0.3,1.5s0.1,0.5,0.3,1.1c0.2,0.6,0.6,1.3,0.6,1.3s1.2,0.4,1.3-0.2
			c0-0.6,0.1-0.4,0-1.7c-0.1-1.2-0.3-1.8-0.3-2.4c0-0.6-0.1-0.6-0.1-1.6s0-1.1,0.2-1.9c0.2-0.8-0.3-1.1,0.3-1.4
			c0.6-0.3,1.2-0.8,1.2-0.8s1.1,1.5,1.2,1.7c0,0.2,0.1,0.5,0.5,1.1c0.4,0.6,1,1,1.2,1.3c0.2,0.3,1.2,0.7,1.6,1.3
			c0.4,0.6,1.3,1.6,1.3,1.6s0.7,0.9,0.9,1.2c0.2,0.3,0.5,0.7,0.8,0.7c0.3,0,1.6,0,2.6-1.3c1-1.3,2.5-2.6,2.5-2.6s0.5-0.9,0.6-1.1
			c0.1-0.3,0.4-0.2,0.6-0.6c0.1-0.4,0.1-0.8,0.3-1.4c0.2-0.7,0.5-0.9,0.5-1.9c0-0.9,0-0.4,0-1.4c0-1,0-0.9-0.2-1.4
			c-0.2-0.5-0.3-0.3-0.6-0.8c-0.3-0.5-0.4-0.4-1-1.2c-0.6-0.9-0.9-1.2-0.9-1.2s-0.1-0.5-0.8-1c-0.7-0.5-1.2-0.9-1.2-0.9
			s-4.1-3.5-4.1-4.2c0-0.8,0.9-1.7,1.3-2.2c0.4-0.5,0.7-0.9,0.9-1.2c0.2-0.4,0.2-0.5,0.5-0.8c0.3-0.4,0.8-0.7,1-0.9
			c0.2-0.2,0.8-0.7,0.8-0.7s-0.2-0.1,0.2-0.1c0.5,0.1,1.3,0.3,1.3,0.3s0.8,0.3,1,0.4c0.2,0.1,0.2,0.2,0.5,0.3
			c0.3,0.2,0.5,0.2,0.5,0.8c0,0.6,0,0.9,0,1.2c0,0.3,0,1,0,1s0,0.5,0,0.8c0,0.3-0.1,1.1-0.1,1.1s-0.1,0.8,0,1c0,0.2,0,0.8,0.1,0.9
			c0.1,0.2,0.1,0.8,0.4,0.5c0.3-0.3,0.3-0.1,0.7-0.9c0.4-0.8,0.7-1.2,0.9-1.8c0.2-0.5,0.1-0.5,0.4-1c0.3-0.5,0.3-0.5,0.5-1
			c0.2-0.5,0.3-0.4,0.6-1.1c0.3-0.7,0.7-1.7,0.7-1.7s0.2-0.8,0.7-1.3c0.5-0.6,1.1-1,1.2-1.1c0.1-0.1,0.1-0.3,1.1-0.4
			c1-0.2,3-0.5,3-0.5s3.7-0.4,4.4-3c0.6-2.6,1.3-3.1,1.5-3.6c0.1-0.5,0.3-0.3,0.4-1.2c0.2-1,0.4-1,0.4-1.8c0.1-0.8,0.1-1.7,0.1-1.7
			s-0.3-1.1-0.6-2c-0.4-0.9-0.2-0.3-0.8-2s-0.5-1.4-1.1-2.4c-0.6-1-0.6-0.8-1.1-1.9c-0.6-1.1-2.7-1.9-2.9-2.2
			c-0.3-0.3-0.1,0.2-0.6-0.4c-0.4-0.6-0.8-1-1-1.5c-0.1-0.6-0.3-0.6-0.3-1.1c0.1-0.6,0.8-1,0.9-1.3c0.1-0.3,0.3-0.3,0.6-0.8
			c0.3-0.5,0.7-0.6,0.7-0.9c0-0.3,0-0.9,0-0.9s0.1-0.2-0.7-0.1c-0.8,0.1-1.1,0.1-1.6,0.1c-0.4,0-1.1,0-1.7,0s-1.5-0.1-1.5-0.1
			s-0.4-0.3-1.2-0.3c-0.8-0.1-1.5,0.3-1.4-1.3c0.1-1.7,2.4-4.6,2.5-5c0.1-0.3,1.2-1.7,1.7-1.8c0.5-0.1,1.1,0,1.1,0l0.6-0.1l0.1,1
			c0,0,0.4,0.8,0.4,1c0,0.3,0.4,1.7,0.4,1.7l0.6,1.3c0,0-0.4,0.3,0.3,0.1c0.8-0.1,1.1,0.4,1.6-0.3s1.2-1.7,1.2-1.7s2,0.3,2.1,0.5
			c0.1,0.2,0.3,0.9,0.3,0.9l0.2,1.4v0.5l0.8,1.9c0,0,2.3,0.6,3,0.2c0.7-0.3,0.4,2.1,0.4,2.1l0,1.1c0,0,0,0.6,0,0.8
			c0,0.2,0.3,1,0.3,1l0.6,0.5c0,0,0.3,0.5,1.1,0.1c0.8-0.3,0.7-0.1,1.2-0.6c0.5-0.5,0.7-0.6,1-0.8c0.3-0.3,0.7-0.2,1.1-1
			c0.4-0.8,0.8-0.7,0.8-1.3s0.6-0.8,0-1.4c-0.6-0.6-0.7-0.7-1.4-1.2c-0.7-0.6-0.8-0.5-1.3-1c-0.5-0.6-1.7-0.7-2.1-1.2
			c-0.4-0.6,0.3,0.6-0.4-0.6c-0.7-1.1-0.6-0.8-1.2-1.9s-0.9-0.8-0.9-1.7s-0.5-0.1,0.3-1.4c0.8-1.4,1.7-2.2,1.7-2.2s-0.1-0.1,0.1-1.1
			c0.1-1,0.7-1.6,0.9-1.6c0.2,0,1.2,0.3,1.2,0.3s1.5,0.4,1.7,0.3c0.2-0.1,0.8-0.7,1-0.7c0.2,0,2.5-2.6,2.5-4.2c-0.1-1.7,0.1-2,0-2.8
			c-0.1-0.8,0.3-0.2,0-1c-0.2-0.8,0.1-2.3,0.1-2.3v-1.9v-1.4l-1.2-1.5c0,0-0.2-0.3-1.2-1.5c-1-1.2-2-2.2-2-2.2s-0.8-0.7-1.8-0.9
			c-1-0.2-2.5-0.2-2.5-0.2l-2.2,0.3l-1.7-0.3c0,0-1.3,0-1.7-0.5c-0.4-0.5-0.6-0.1-1.2-1.3c-0.6-1.2-0.4,0.1-0.6-1.2
			c-0.2-1.2-0.4-0.9-0.2-2c0.3-1.1,0.2-0.8,0.6-1.7c0.4-0.8,0.6-1,0.8-1.2c0.2-0.2-0.1-0.1,0.8-0.9c0.8-0.8,1.7-2.4,2.9-2.9
			c1.2-0.5,1.5-0.8,2-0.6c0.6,0.1,1.4,0.3,1.9,0.5c0.5,0.1,2.4,1,2.7,1c0.3,0,2.5,0,2.8,0c0.3,0,2.2,0.3,2.5,0.4
			c0.3,0.1,1.7,0.6,1.7,0c0-0.6,0-0.6,0-0.9c0-0.3,0-1.1,0-1.1s1.3-1.8,2.2-2.8c0.9-1,1.2-0.7,1.4-0.6c0.2,0.1,1.1,0.9,1.1,0.9
			c0.8-0.2,1.1-0.2,1.7-0.6c0.6-0.3,0.7,0,1-0.5c0.3-0.4,1.1-0.8,1.1-0.8s0.8,0.3,1,0.5c0.3,0.1,0.6,0.6,0.6,1
			c0.1,0.3,0.5,1.4,0.5,1.4s0.3,0.4,0,1c-0.3,0.6-0.8,1.4-0.8,1.4s-0.8,1-0.8,1.2c-0.1,0.2-0.2,1-0.2,1.4s0,2,0.1,2.2
			c0.1,0.2,0.2,1.1,0.4,1.3c0.2,0.2,0.6,1.3,0.9,1.4c0.3,0.1,0.6,0.6,0.8,0.6c0.3,0.1,1.2,0.1,1.4,0.3c0.2,0.1,0.5,1,0.5,1
			s0.2,0.7,0.3,1.1c0.1,0.4,0.6,2,0.6,2s2,1.4,2.2,1.6c0.3,0.1,2.4,2.5,2.6,2.5s1.1,0.1,1.1-1c-0.1-1.1,0.1-2.1,0-3.3
			c-0.1-1.2,0-2.8,0-2.8v-1.9l-0.7-2l-0.9-1.9c0,0-1-0.9-1.2-0.9c-0.2,0-0.6,0-0.6,0l-1.1-0.3c0,0-0.3-0.1-0.4-0.5s-0.2-0.8-0.2-1.1
			s0.1-0.4,0.4-0.8c0.3-0.4,0.8-0.7,1.1-1.1c0.4-0.4,0.5-0.5,1.1-1c0.6-0.5,1.5-0.9,1.5-0.9l0.9,0.2c0,0,0.1,1,0,2.1
			c-0.1,1.2-0.1,1.9,0.9,0.5c1-1.4,1.8-2.1,2-2.3c0.2-0.2,0.5-0.5,0.7-0.8c0.2-0.3,0.3-0.5,0.6-0.9c0.3-0.4,0.5-0.6,0.7-0.7
			c0.2-0.2,0.6-0.4,0.6-0.4s0.5,0.1,0.9,0c0.4-0.1,1.2,0,1.2,0s1.3,0.1,1-0.6c-0.3-0.7-0.5-0.8-0.5-0.8l-0.8-0.3l-1.1-0.5l-1.3-0.6
			l-1.1-0.5l-2.2-1.1c0,0-0.3-0.1-0.2-0.5c0.1-0.3,0.5-0.6,0.5-0.6s0.3,0.1,0.5,0c0.2-0.1,0.4-0.1,0.6-0.3c0.2-0.3,0.2-0.4,0.4-0.7
			c0.3-0.3,0.1-0.3,0.5-0.5c0.4-0.2,1.1-0.2,1.4-0.1c0.4,0.1,1.9,0.4,1.9,0.4l1.4,0.5l1.1,0.3l0.6,0.3l0.9,0.2h1.1l1.3,0l0.7-0.1
			l-0.4-0.3l-1.1-0.7l-1.1-1l-1.1-0.7c0,0-0.8-0.4-1.3-0.6c-0.5-0.2-1.8-0.4-1.8-0.4l-1.9-0.1H599h-1.7c0,0-0.6-0.1-1-0.2
			c-0.4-0.1-0.7-0.2-1.6-0.4c-0.9-0.2-1.1-0.2-1.7-0.4c-0.6-0.2-1.7-0.6-1.7-0.6l-1.1-0.4c0,0-0.9-0.3-1.8-0.5
			c-0.9-0.2-1.8-0.3-2.3-0.4c-0.5-0.1-2.5-0.4-2.6-0.5c-0.2-0.1-0.2-0.1-0.9-0.2c-0.7-0.1-2.4-0.3-2.4-0.3l-1.2-0.1
			c0,0-1.2,0-2.1,2.2c-1,2.2-2.7-0.6-2.9-0.6c-0.2-0.1-1-0.2-1-0.2l-2.5-0.6l-2.3-0.5l-1.5-0.3l-2.5-0.3c0,0-2.8,0.2-3,0.3
			c-0.2,0.1-1.4,0-1.4,0l-1.2-0.3l-1.2-1.2l-2.2-0.6c0,0-3.5-0.1-3.7-0.1c-0.1,0-0.1,0-0.1,0h-9.7l-4.9-1c0,0-0.5-1.2-0.8-1.3
			c-0.3-0.2-1.5-0.5-1.7-0.5c-0.2,0-1.1,0.4-1.1,0.6c0,0.2,0.1,0.8,0,1.1c-0.1,0.3-0.3,0.7-0.5,0.9c-0.2,0.2-1.1,0.8-1.1,0.8
			s-2.1,0.3-2.3,0.2c-0.2-0.1-1.4-0.3-1.7-0.4c-0.3-0.1-1.2-0.4-1.2-0.4l-1.7-0.1l-2.4,0.2h-1.7l-2.2-0.4l-1.6-0.6l-1.3-0.7L513,128
			l-2.8-0.2l-2.4,0.2l-1.1,0.6l-1.9,0.5h-2.2l-1.7-0.3l-1.4-0.6H497l-1.9-0.1h-2.4l-2.1-0.5c0,0-0.6,0.2-0.6-0.5
			c0-0.7,0.3-1.3,0.3-1.3l1.2-1.2l0.8-1.2c0,0-0.3-0.7-0.7-0.9c-0.3-0.2-5.6,0-5.6,0s-0.9,0.4-1.3-0.1c-0.4-0.5-0.4-0.9-0.6-1.1
			c-0.2-0.2,0.1-0.3-0.8-0.3c-0.9,0-2.4,0.3-2.4,0.3h-1.5l-2,0.6l-1.7,0.3h-1.1l-0.5-0.5l-1.8-0.2l-1,0.7l-0.7,1.2l-1,1l-1.6,0.8
			l-2.3,0.3l-2.8,0.4l-4.3,0.8l-1.9,0.3l-1.1,0.6l0.2,1.5l0.6,0.8l0.6,1.3l0.4,1.2c0,0-0.4,1.4-0.6,1.6c-0.3,0.1-0.8,1.2-1.5,0.4
			c-0.7-0.8-0.7-1.1-1.1-1.6c-0.4-0.5-1.1-0.3-1.7-1.2c-0.6-1-0.7-0.7-0.9-1.4c-0.2-0.7-0.4-1.2-0.4-1.2s-0.3,0.6-0.3,1
			c0.1,0.3,1,1.7,1,1.7l0.3,0.7l0.6,1.4l0.3,1.2l0.2,0.6l0.3,0.8L453,137c0,0-1.1,0.3-1.5,0.1c-0.3-0.2-0.9,0.3-1.3-0.9
			c-0.4-1.2-0.4-1-0.6-1.9c-0.1-0.9-0.1-1.3-0.1-1.9c0-0.6-0.3-1.1-0.3-1.1l-2.2-2.4l-1.6-0.8l-1.8-0.1l-1.7,0.1l-0.2,1.9l1.4,1.3
			l0.9,1c0,0,0.3,0.2,0.6,0.5c0.3,0.3,0.6,0.8,0.6,1c0.1,0.2,0.4,0,0.1,0.7c-0.4,0.7-1,1.2-1.5,1.3c-0.4,0.1-0.8,0.6-1.4,0.3
			c-0.6-0.2-1.7-0.3-1.7-0.3l-1.8-0.9l-1.2-1l-1.8-0.9h-0.4c0,0-2.5,0.5-3.9,2.1s-1.8,1.8-2.1,1.8s-1.2-0.6-1.2-0.6s-1.1,0-1.4,0
			s-1.3-0.4-1.7-0.6c-0.4-0.2-0.8-0.4-1.1-0.2c-0.4,0.2-1.9,0.8-2.6,1.1c-0.7,0.3-3.2,1.7-3.2,1.7l-1.6,0.9c0,0-2.1,1.2-2.9,1.8
			c-0.8,0.5-1.7,1.2-1.7,1.2l-1.7,1.1l-0.5,0.2c0,0-0.2,0.4-1.7-0.6c-1.5-1-1.9-1.4-2.4-1.9c-0.5-0.4-1.4-0.4-1.6-1.2
			c-0.2-0.8-0.1-1.4-0.1-1.4s0.7-0.5,1.1-0.7c0.4-0.2-0.4-0.2,0.4-0.2c0.8,0,1.5,0.6,2,0.7c0.5,0.1,1.2,0.5,1.2,0.5s-0.3,0.3,0.5,0
			c0.8-0.3,1.1-0.2,1.3-0.6s0.9-1.3,0.9-1.3s0.2-0.3-0.4-1.2c-0.6-0.9,0.4-0.9-1.1-1.1c-1.5-0.2-1.6-0.2-3.3-0.2s-3.3,0-3.3,0
			l-5-0.8c0,0-2.2-0.6-2.7-0.8c-0.5-0.3-2.7-1-3.6-1.1c-0.9-0.1-2.3-0.1-3.8-0.1s-6.2,1-6.2,1l-3.4,2.2l-2.4,2.6c0,0-0.9,1-2,2.5
			c-1.1,1.5-1.7,2.6-1.7,2.6v3.2c0,0-0.4,1.2-0.9,1.4c-0.5,0.1-2.2,0.6-2.5,0.1c-0.4-0.4,0.5-0.4-0.4-0.4c-0.9,0-2.8,1.7-2.8,1.7
			l-0.5,3.2l0.6,1.8c1-0.4,1.5-1.2,1.5-1.2l2.9,0.1l2.2,1.1l2.2,2.2v0.8l1,1.7l1,1.1c0,0,0.1,1,1.3,0c1.1-1,1.9-1.1,2.4-1.8
			c0.5-0.7,1.7-1.7,1.7-1.7l1.4-1.2l0.5-1.5l-0.4-1.8l-1.3-2.3l0.6-1.8c0,0,0-0.8,1-1.5c1-0.7,0.5-0.7,1.7-1.2
			c1.1-0.6,2.3-1.1,2.3-1.1l2.7-0.8c0,0,0.8,0-0.3,1.5s-2.4,4-2.4,4l-0.1,1.7c0,0,0.8-0.1,1.3,0c0.5,0.1,1.3,0.9,1.9,0.7
			c0.6-0.2,1,0.7,1.8,0c0.8-0.7,1.5-0.8,1.9-0.8c0.4,0,1.8,0.3,1.8,0.3l0.8,1.4l-1,2.1l-2.2,0.1l-1.4-0.6l-0.6,1.7l0.1,1.5
			c-1,0.4-1.3,0.7-2.3,0.4c-1-0.3-2.4,1.9-2.4,1.9s0.3,0.7,0.3,1.1s-0.6,2.5-0.6,2.5s-1.4,0.7-1.8,0.7c-0.4,0-2-0.6-2.5-0.6
			c-0.5,0-2,1.1-2,1.1s0.5,0.8-1,0c-1.5-0.8-2.4-1-2.4-1l-1.8-1l-1.7,0.4l-1.4,1l-1.8-0.8c0,0-0.3-0.7-0.9,0.1
			c-0.6,0.8-1.1,1.7-1.1,1.7l-1.3,0.7h-1.8l-0.6,1.2l0.3,0.8c0,0-1.2,1.9-2.6,1.4c-1.4-0.5-1.6,2.9-1.6,2.9s-0.9,0.9-1.3,0.9
			s-0.4,0.1-1,0.2c-0.6,0.1-1.5,0.3-2,0.3c-0.5,0-1.5,0.2-2,0.1c-0.5-0.1-3.3,0.7-3.3,0.7l1,0.9c0,0,0.6,0.6,0.8,0.6
			c0.3-0.1,1.2,0.1,1.2,0.1s0.4,0.3,0.1,0.4c-0.3,0.1-2.4,0.4-2.4,0.4l-0.8-0.1l-0.6,0.9l1.1,1.2c0,0,2.6,0.8,3,2.5
			c0.4,1.7,0.1,1.4-0.1,2.1s-0.6,2.6-0.6,2.6s-0.5,0-1.5,0.1c-1,0.1-6.1-1.9-6.1-1.9s-0.4-0.1-1,0.1c-0.6,0.2-1,0.6-1,0.6l-0.8,0.6
			l-0.3,0.5l-0.3,0.6l-0.4,1.2l-0.4,4.6l-0.2,1c0,0,0,0.6,0,1s0,1.6,0,1.6s0.2,0.8,0.2,0.9c0,0.2,0.6,1.2,0.6,1.2l0.9,0.6
			c0,0,0.2,0.1,0.4,0.1c0.2,0,0.2-0.1,0.8-0.2c0.6-0.1,2.3,0,2.3,0l0.7,0.4l1.4,0.4l1.8,0.2l1-0.6l1.2-1.1l1.1-0.7l1.7-1.1l-0.2-1
			c0,0-0.8,0.9-0.2-1.1c0.6-2,1.2-3.5,1.7-3.9c0.5-0.4,1.6-0.9,1.7-1c0.1-0.1,0.9-0.1,0.9-0.1s0.2,0.3,0.5-0.4s0.2-0.5,0.7-1
			c0.5-0.6,0.9-0.6,1.2-1.1c0.3-0.5,0.9-0.7,0.9-0.7l0.7-0.6l1.6,0.4l1.1,0.3l0.9-0.1l0.7-0.8l-0.1-0.9l0.9-0.7l1.2,0.3l0.8,0.1
			l0.8,1l0.5,0.8l1,1l1,0.6l1,0.5l1.5,0.6l1.1,0.7l0.6,0.6l1,0.8l0.9,0.6c0,0,0.6,0.3,0.8,0.7c0.2,0.4,0.3,0.7,0.3,0.7l0.1,1
			l-0.1,0.8l-0.6,0.6l-1,0.5c0,0-0.8,0.4-1.2,0.8c-0.4,0.5-0.5,1-0.5,1l0.4,0.4l0.5,0.1c0,0,0.9,0.6,1.1,0.1
			c0.2-0.5,0.6-1.2,0.9-1.6c0.3-0.4,1.2-0.6,1.4-0.9c0.2-0.3,0.6-0.6,0.6-0.9c0-0.3,0,0.4,0-0.3s0-0.8-0.1-1.2c0-0.4,0-0.7,0-0.7
			l1.1,0.4h0.7c0,0,0.4-0.2,0.2-0.6c-0.2-0.4,0.1,0.1-0.2-0.4c-0.3-0.5-0.2-0.4-0.8-0.8c-0.5-0.5-1.1-0.8-1.1-0.8l-1.2-1l-2.7-2.4
			c0,0-0.6-0.4-0.9-0.8s-1-1.1-1-1.1s-1.3,0.3-1.5-0.7c-0.2-1-0.2-1.3-0.2-1.6s0-1.5,0-1.5l1.2,0.6c0,0,0.4-0.1,1,0.5
			c0.6,0.5,1.1,0.9,1.1,0.9l1.5,1.1l3,2c0,0,0.1,0.2,0.2,0.4c0.1,0.2,0.9,0.8,0.9,0.8l1.1,0.3l0.7,0.6l0.2,0.9l0.1,0.7l0.3,1.2
			l0.4,1.4l0.6,1.5l0.5,0.9l0.7,1l0.6,1.2l1.2,1.1l0.2,0.1c0,0,0.4,0.6,1,0.1c0.6-0.5,0.5-0.4,0.9-1.1c0.3-0.7,0.6-0.9,0.6-0.9
			l0.5-0.3l0.7-0.5l-0.6-0.9l-0.8-0.8l-1.1-1l-0.1-1.4l0.4-0.6c0,0,0.2,0.2,0.4,0.2s1,0.7,1,0.7l0.7,0.6l1.1-0.2l0.8-0.8l0.6-0.4
			l0.6-0.4l0.6,0.6l0.6,1l0.1,2.1l-0.1,1.9l0.2,1.3l1.1,2.1l0.4,0.4l1.5,0.3h3.3l1.8-0.1l1.9-0.4l1.8-0.1l0.9,0.2l0.9,0.4
			c0,0,0.9-0.6,1,0.4c0.1,1,0.1,1.2,0,1.6c0,0.3,0.4,3.2,0.4,3.4c0,0.3-0.5,1.2-0.5,1.2s-0.5,0.8-0.6,1.1c-0.1,0.4-0.6,1.1-0.7,1.3
			c-0.1,0.2-0.5,0.7-0.7,0.8C412,207.6,411.3,208.8,409,208.2z"/>
		<path fill="#D7F0FF" d="M440.4,299.6v1.9c0,0-0.8,1.1-1.3,1.4c-0.5,0.3-0.1,0.6-1.3,0.8c-1.1,0.3-3.1,0-3.1,0s-3.3,1-3.1,3.2
			c0.3,2.2,0.5,2.5,0.6,3.2c0.1,0.7,0.3,2.3,0.3,2.3s0.1,1.7,0,2.1c-0.1,0.4-0.9,1.8-0.9,1.8l-0.9,0.8l-1.4,1.2v1.1
			c0,0-0.4,1.8,0,2.2c0.4,0.4,0.8,2.6,0.8,2.6l0.9,0.8c0,0,1.7,1.1,2.7,0c1-1.1,0.3-1,1.1-1.5c0.7-0.6,1.2-1,1.5-1.4
			c0.3-0.4,0.3-0.3,0.5-1.5c0.3-1.2,0.1-1.4,0.5-2.3c0.4-1,0.4-0.3,0.9-2.3c0.5-2.1,0.4-2.8,0.8-3.4c0.4-0.6,1.3-0.9,1.4-2
			c0.1-1.1-0.1-0.8,0.5-2.2c0.6-1.4,0.4-0.1,0.6-1.4C441.8,305.8,441.6,298.2,440.4,299.6z"/>
		<path fill="#D7F0FF" d="M531.2,268.5c0,0,0,1-0.6,0c-0.6-1-1.4-1.2-1.8-1.7c-0.4-0.4,0.4,0.8-0.4-0.4c-0.8-1.2,0.3,0.6-0.8-1.2
			c-1-1.8-0.9-1.7-1.5-2.2c-0.6-0.6-0.6-0.8-1.1-1c-0.5-0.1-2.4,0-2.4,0s0.9,2.2,1.7,3.4c0.8,1.3,1.7,2.5,1.8,2.9
			c0.1,0.4,1,1.5,1.8,2.8c0.8,1.2,2.2,2.6,2.7,3c0.5,0.4,0.9,0.7,1.3,1.8c0.4,1.1,1.3,1.7,1.5,2.5s1.5,3.6,1.5,3.6l1.3,2.3
			c0,0,1.1,2.6,1.9,1.7c0.8-1,0,0,0.8-1s1.1-1,1.3-1.8c0.1-0.8,0.1-0.1,0-2.2c-0.1-2.1,0.4-1.4-0.5-2.8c-0.9-1.4-0.8-1-1.5-2.5
			c-0.8-1.5,0-0.4-1.5-2.8c-1.5-2.3-1.5-2.3-1.5-2.3S534.4,266.9,531.2,268.5z"/>
		<path fill="#D7F0FF" d="M560.1,259.1c-0.6,0.3-0.9,2.8-0.9,2.8s-0.6,0.5-1.4,0.6c-0.8,0.1-1.7,0.7-2,0.7s-1.5,0-1.5,0
			s-1,0.6-1.3,1c-0.3,0.4,0.5,1.7,0,2.1c-0.5,0.4-0.9,2.1-0.9,2.1h-2v1.4c0,0,0,1.1-0.6,0.7c-0.6-0.4-0.6-0.4-0.6-0.4
			s-0.5-0.1-0.9,0.5c-0.4,0.6-0.6,1.8-0.6,1.8s-0.4,0.7,0,1.7c0.4,1,0.8,2.8,0.8,2.8s1.5,2.1,2,2.2c0.5,0.1,1.5,0.1,2.2,0
			c0.6-0.1,0.5-0.8,1.4-0.8c0.9,0,1.9,0.9,1.9,0.9s0.9,0.5,1.4,0c0.5-0.5,1,0,1.3-1.2c0.3-1.2,0-1.2,0.5-1.9
			c0.5-0.7,0.8-0.6,1.4-1.1c0.6-0.6,0.9,0.8,1-0.9c0.1-1.7,0-2.6,0-2.6s0.6,0,1-0.3c0.4-0.3,0.1,1.2,0.4-0.3c0.3-1.5,0-2.3,0-2.3
			s-0.3-2.3,0.1-3.6c0.4-1.2,0-3.2,0-3.1C562.6,262,562.2,258,560.1,259.1z"/>
		<path fill="#D7F0FF" d="M595.2,276.3l0.7,1.4v0.6c0,0-0.4,1.7-2.5,1.1c-2.1-0.6-3.1-1.1-3.4-1.5s-0.7,0-0.7-0.9c0-0.9,0-1.1,0-1.7
			s0.4-0.6,0-0.9c-0.4-0.3-0.2,0.4-0.9,0c-0.7-0.4-1.6-0.3-2.1-0.1c-0.5,0.2-1.1,0.9-1.1,0.9s0.3,1.4,0.6,1.6s0.3,0.2,0.3,0.2
			l0.8,1.3c0,0-0.3,0.7,0.1,1.2c0.4,0.5,0.8,1.1,1.1,1.2c0.3,0.1,0.5-0.1,1,0c0.5,0.1,1.8-0.3,2.1,0c0.3,0.3,1.5,0.9,1.9,1.1
			c0.4,0.2,1.7,1.2,1.7,1.2l1.2,0.7l1.2,1.8c0,0,0.9,1.7,0.9,2c0,0.3,0,1.3,0,1.3h1.7c0,0,0.2-0.7,0.6,0c0.4,0.7,1.5,2,2,2.1
			c0.5,0.1,1.7,0.7,2,0.7c0.3,0,0.8,1.1,1.2,0c0.5-1.1,0.7-1.4,1-2.1c0.3-0.6,1-1.3,1.3-1c0.4,0.3,1.1,1.4,1.3,1.8
			c0.2,0.3,1.2,0.8,1.3,1.1c0.1,0.3,1.2,1.1,1.6,1.3c0.4,0.2,1.9,1,2.2,1.1c0.3,0.1,1.4,0.7,1.9,0.8c0.5,0.1,1.3-0.2,1.9,0
			c0.6,0.2,1,0.2,1-0.4s2-0.2-0.6-2.1c-2.6-1.9-3-1.9-4.2-2.6c-1.2-0.7-1-0.1-1.2-0.7s-0.5-0.4-0.1-1.2c0.4-0.8,0.1,0,0.4-0.8
			c0.3-0.8-0.5-1.1-1.1-1.4c-0.7-0.3-0.3,1-0.7-0.3c-0.4-1.3-0.2-1.4-0.7-2c-0.5-0.5-0.8-0.3-1.7-0.9c-0.8-0.6-1.9-0.8-2.4-1.2
			c-0.5-0.4-0.8-0.4-1.1-0.7c-0.4-0.3-1.2-0.7-1.8-0.9c-0.6-0.2-1.3-0.5-1.8-0.7c-0.5-0.2-0.7-0.3-1.3-0.7c-0.7-0.4-1.1-0.5-1.4-0.7
			c-0.4-0.2,0.3,0.1-0.4-0.2C598.1,276.8,596,275.2,595.2,276.3z"/>
		<path fill="#D7F0FF" d="M590.4,297.9h0.8l1,2.1v1.5l-0.9,1.9c0,0,0.8,1.2,0.9,1.7c0.1,0.4,0.5,1.5,0.9,1.8c0.4,0.3,2,1.9,2,1.9
			s-1.4,2.1,1.4,0c2.8-2.1,3.2-2.1,3.7-2.5c0.5-0.4,0,1.5,0.5-0.4c0.5-1.9,0.6-1.1,0.8-3c0.1-1.9,1.1-2.2,0.9-2.8
			c-0.2-0.6,0.3-1.1,0.8-1.1s6.2,0.7,5.8,1.5c-0.4,0.8-0.2,2.9-0.9,4.1c-0.6,1.2-0.9,2.5-1.4,3.5c-0.5,1-0.8,2.5-0.8,2.5l1.1,1.7
			l2.5,1.5c0,0,0.8-1,0.9,0c0.1,1,0.3,2.9,0.6,3.2c0.4,0.3,1.3,2.1,1.3,2.1h1c0,0,0.5,0.6,0.8,1.4s0.5,1.9,0.8,2.9
			c0.3,1-0.5,1.9,0,3c0.5,1.1,0.1,4.6,0.1,4.6s0.7,2.1,0.2,3c-0.5,1-0.6,2.3-0.9,2.8c-0.3,0.4-1,1.9-1.5,2.8s-0.8,1.9-1.7,2.8
			c-0.9,0.8-3.3,2.9-3.3,2.9s-0.9,1-1.4,1.4c-0.5,0.4-1.8,1.5-2.2,1.8c-0.4,0.3-1,0.7-1.4,1c-0.5,0.3-1.7,0.6-2.1,0.8
			c-0.4,0.3-1.9,0.8-2.3,0.7c-0.4-0.1-3.1-0.7-3.4-1.1c-0.4-0.4-3.4,2.5-3.4,2.5s-2.3,0.3-2.7,0c-0.4-0.3-0.8,1-1.5-0.7
			c-0.8-1.7-1-0.8-1.3-2.3c-0.3-1.5,0.8-1.1,0-2.5c-0.8-1.4-1.3-2.3-1.1-3c0.3-0.7,0.4-1.5,0-1.5c-0.4,0-2,0.7-2.9,1.1
			c-0.9,0.4-0.9,3.2-2.3,1.1c-1.4-2.1-1.4-2.7-1.9-4.5c-0.5-1.8-0.3-2.2-1.4-2.6c-1.1-0.4-1.9-0.4-3.8-0.1c-1.9,0.3-3.3,0.4-4.3,0.8
			c-1,0.4-3.2,2.1-3.7,2.2c-0.5,0.1-1.3,0.3-2,0.7c-0.7,0.4-2.7,1.1-4.2,1.4c-1.5,0.3-3.2,0.7-4.8,1.1c-1.7,0.4-3.6,5-4.3,1
			c-0.8-4,0.1-4,0-4.6c-0.1-0.6-0.8-1.9-0.3-2.6c0.4-0.7-0.4-0.4-0.2-2.3c0.2-1.9,0.2-2.6,0-3.6c-0.3-1,1.1-4.1,1.3-4.7
			c0.1-0.6,0,0.3,0.1-2.2c0.1-2.5-0.1-2.1,0.4-3.6c0.5-1.5,0.1-1,1.4-2.2c1.3-1.2,2.4-1.2,2.9-1.7c0.5-0.4,1.3-0.7,2.4-1.2
			c1-0.6,1.4-0.6,3.2-1.2c1.8-0.7,2.8-0.7,3.3-1c0.5-0.3-0.9,0.7,0.5-0.3c1.4-1,0.4,0.7,1.4-1c1-1.7,1-1.9,1.8-2.9
			c0.8-1,0.3-1.4,1.3-1.2c1,0.1,1.3,0.6,1.5,0c0.3-0.6,0.8-1.1,1.1-2.1c0.4-1,1.3-1.4,1.4-1.8c0.1-0.4,1.7-1.8,1.7-1.8
			c1.3,0,2.5,1.9,2.5,1.9s0.1,0.3,0.9,0.4c0.8,0.1,1.5,0.4,1.9,0.3c0.4-0.1,0.1,0.1,0.6-0.8c0.5-1-0.4-0.3,1-1.9
			c1.4-1.7,1.5-1.8,2.2-2.3s1.1-1.7,2.3-1.9C587.1,297.7,590.4,297.9,590.4,297.9z"/>
	</g>
	<g opacity="0.2" clip-path="url(#SVGID_2_)">
		<g>
			<g>
				
					<radialGradient id="SVGID_3_" cx="181.4905" cy="250.2845" r="176.7769" gradientTransform="matrix(1.006 0 0 1 -5.4868 0)" gradientUnits="userSpaceOnUse">
					<stop  offset="0" style="stop-color:#00AEEF"/>
					<stop  offset="1" style="stop-color:#2E3192"/>
				</radialGradient>
				<rect x="176.6" y="0.3" fill="url(#SVGID_3_)" width="1" height="500"/>
			</g>
			<g>
				
					<radialGradient id="SVGID_4_" cx="237.1565" cy="250.2845" r="176.7769" gradientTransform="matrix(1.006 0 0 1 -5.4868 0)" gradientUnits="userSpaceOnUse">
					<stop  offset="0" style="stop-color:#00AEEF"/>
					<stop  offset="1" style="stop-color:#2E3192"/>
				</radialGradient>
				<rect x="232.6" y="0.3" fill="url(#SVGID_4_)" width="1" height="500"/>
			</g>
			<g>
				
					<radialGradient id="SVGID_5_" cx="292.8225" cy="250.2845" r="176.7769" gradientTransform="matrix(1.006 0 0 1 -5.4868 0)" gradientUnits="userSpaceOnUse">
					<stop  offset="0" style="stop-color:#00AEEF"/>
					<stop  offset="1" style="stop-color:#2E3192"/>
				</radialGradient>
				<rect x="288.6" y="0.3" fill="url(#SVGID_5_)" width="1" height="500"/>
			</g>
			<g>
				
					<radialGradient id="SVGID_6_" cx="348.4885" cy="250.2845" r="176.7769" gradientTransform="matrix(1.006 0 0 1 -5.4868 0)" gradientUnits="userSpaceOnUse">
					<stop  offset="0" style="stop-color:#00AEEF"/>
					<stop  offset="1" style="stop-color:#2E3192"/>
				</radialGradient>
				<rect x="344.6" y="0.3" fill="url(#SVGID_6_)" width="1" height="500"/>
			</g>
			<g>
				
					<radialGradient id="SVGID_7_" cx="404.1545" cy="250.2845" r="176.7769" gradientTransform="matrix(1.006 0 0 1 -5.4868 0)" gradientUnits="userSpaceOnUse">
					<stop  offset="0" style="stop-color:#00AEEF"/>
					<stop  offset="1" style="stop-color:#2E3192"/>
				</radialGradient>
				<rect x="400.6" y="0.3" fill="url(#SVGID_7_)" width="1" height="500"/>
			</g>
			<g>
				
					<radialGradient id="SVGID_8_" cx="459.8205" cy="250.2845" r="176.7769" gradientTransform="matrix(1.006 0 0 1 -5.4868 0)" gradientUnits="userSpaceOnUse">
					<stop  offset="0" style="stop-color:#00AEEF"/>
					<stop  offset="1" style="stop-color:#2E3192"/>
				</radialGradient>
				<rect x="456.6" y="0.3" fill="url(#SVGID_8_)" width="1" height="500"/>
			</g>
			<g>
				
					<radialGradient id="SVGID_9_" cx="515.4865" cy="250.2845" r="176.7769" gradientTransform="matrix(1.006 0 0 1 -5.4868 0)" gradientUnits="userSpaceOnUse">
					<stop  offset="0" style="stop-color:#00AEEF"/>
					<stop  offset="1" style="stop-color:#2E3192"/>
				</radialGradient>
				<rect x="512.6" y="0.3" fill="url(#SVGID_9_)" width="1" height="500"/>
			</g>
			<g>
				
					<radialGradient id="SVGID_10_" cx="571.1525" cy="250.2845" r="176.7769" gradientTransform="matrix(1.006 0 0 1 -5.4868 0)" gradientUnits="userSpaceOnUse">
					<stop  offset="0" style="stop-color:#00AEEF"/>
					<stop  offset="1" style="stop-color:#2E3192"/>
				</radialGradient>
				<rect x="568.6" y="0.3" fill="url(#SVGID_10_)" width="1" height="500"/>
			</g>
		</g>
		<g>
			<g>
				
					<radialGradient id="SVGID_11_" cx="-240.8589" cy="1114.6448" r="176.7772" gradientTransform="matrix(0 -1.006 1 0 -739.5504 203.9802)" gradientUnits="userSpaceOnUse">
					<stop  offset="0" style="stop-color:#00AEEF"/>
					<stop  offset="1" style="stop-color:#2E3192"/>
				</radialGradient>
				<rect x="125.1" y="445.8" fill="url(#SVGID_11_)" width="500" height="1"/>
			</g>
			<g>
				
					<radialGradient id="SVGID_12_" cx="-185.1929" cy="1114.6448" r="176.7772" gradientTransform="matrix(0 -1.006 1 0 -739.5504 203.9802)" gradientUnits="userSpaceOnUse">
					<stop  offset="0" style="stop-color:#00AEEF"/>
					<stop  offset="1" style="stop-color:#2E3192"/>
				</radialGradient>
				<rect x="125.1" y="389.8" fill="url(#SVGID_12_)" width="500" height="1"/>
			</g>
			<g>
				
					<radialGradient id="SVGID_13_" cx="-129.5269" cy="1114.6448" r="176.7772" gradientTransform="matrix(0 -1.006 1 0 -739.5504 203.9802)" gradientUnits="userSpaceOnUse">
					<stop  offset="0" style="stop-color:#00AEEF"/>
					<stop  offset="1" style="stop-color:#2E3192"/>
				</radialGradient>
				<rect x="125.1" y="333.8" fill="url(#SVGID_13_)" width="500" height="1"/>
			</g>
			<g>
				
					<radialGradient id="SVGID_14_" cx="-73.8609" cy="1114.6448" r="176.7772" gradientTransform="matrix(0 -1.006 1 0 -739.5504 203.9802)" gradientUnits="userSpaceOnUse">
					<stop  offset="0" style="stop-color:#00AEEF"/>
					<stop  offset="1" style="stop-color:#2E3192"/>
				</radialGradient>
				<rect x="125.1" y="277.8" fill="url(#SVGID_14_)" width="500" height="1"/>
			</g>
			<g>
				
					<radialGradient id="SVGID_15_" cx="-18.1949" cy="1114.6448" r="176.7772" gradientTransform="matrix(0 -1.006 1 0 -739.5504 203.9802)" gradientUnits="userSpaceOnUse">
					<stop  offset="0" style="stop-color:#00AEEF"/>
					<stop  offset="1" style="stop-color:#2E3192"/>
				</radialGradient>
				<rect x="125.1" y="221.8" fill="url(#SVGID_15_)" width="500" height="1"/>
			</g>
			<g>
				
					<radialGradient id="SVGID_16_" cx="37.4711" cy="1114.6448" r="176.7772" gradientTransform="matrix(0 -1.006 1 0 -739.5504 203.9802)" gradientUnits="userSpaceOnUse">
					<stop  offset="0" style="stop-color:#00AEEF"/>
					<stop  offset="1" style="stop-color:#2E3192"/>
				</radialGradient>
				<rect x="125.1" y="165.8" fill="url(#SVGID_16_)" width="500" height="1"/>
			</g>
			<g>
				
					<radialGradient id="SVGID_17_" cx="93.1371" cy="1114.6448" r="176.7772" gradientTransform="matrix(0 -1.006 1 0 -739.5504 203.9802)" gradientUnits="userSpaceOnUse">
					<stop  offset="0" style="stop-color:#00AEEF"/>
					<stop  offset="1" style="stop-color:#2E3192"/>
				</radialGradient>
				<rect x="125.1" y="109.8" fill="url(#SVGID_17_)" width="500" height="1"/>
			</g>
			<g>
				
					<radialGradient id="SVGID_18_" cx="148.8031" cy="1114.6448" r="176.7772" gradientTransform="matrix(0 -1.006 1 0 -739.5504 203.9802)" gradientUnits="userSpaceOnUse">
					<stop  offset="0" style="stop-color:#00AEEF"/>
					<stop  offset="1" style="stop-color:#2E3192"/>
				</radialGradient>
				<rect x="125.1" y="53.8" fill="url(#SVGID_18_)" width="500" height="1"/>
			</g>
		</g>
	</g>
	<g clip-path="url(#SVGID_2_)">
		<g>
			<image overflow="visible" width="522" height="512" xlink:href="5BD36EB9.png"  transform="matrix(1 0 0 1 113.4715 -7)">
			</image>
		</g>
		<g>
			<path fill="#FFFFFF" d="M305.8,121.3C305.8,121.3,305.7,121.4,305.8,121.3c-0.1,0.1-0.2,0-0.2,0
				C305.6,121.2,305.6,121.2,305.8,121.3C305.7,121.2,305.8,121.2,305.8,121.3z"/>
			<circle fill="#FFFFFF" cx="311.7" cy="132" r="0.5"/>
			<path fill="#FFFFFF" d="M297.3,138.5c0,0.7,0.5,1.2,1.2,1.2c0.7,0,1.2-0.5,1.2-1.2c0-0.7-0.5-1.2-1.2-1.2
				C297.8,137.3,297.3,137.9,297.3,138.5z"/>
			<path fill="#FFFFFF" d="M270.2,137.9c0,0.8,0.7,1.5,1.5,1.5c0.8,0,1.5-0.7,1.5-1.5c0-0.8-0.7-1.5-1.5-1.5
				C270.9,136.5,270.2,137.1,270.2,137.9z"/>
			<path fill="#FFFFFF" d="M294.2,159c0,1.5,1.2,2.7,2.7,2.7s2.7-1.2,2.7-2.7s-1.2-2.7-2.7-2.7S294.2,157.5,294.2,159z"/>
			<path fill="#FFFFFF" d="M358.5,182.7c0,0.3,0.3,0.6,0.6,0.6s0.6-0.3,0.6-0.6c0-0.3-0.3-0.6-0.6-0.6S358.5,182.4,358.5,182.7z"/>
			<path fill="#FFFFFF" d="M369.3,200c0,0.8,0.7,1.5,1.5,1.5s1.5-0.7,1.5-1.5c0-0.8-0.7-1.5-1.5-1.5S369.3,199.2,369.3,200z"/>
			<path fill="#FFFFFF" d="M351.8,211.8c0,1.8,1.5,3.3,3.3,3.3s3.3-1.5,3.3-3.3c0-1.8-1.5-3.3-3.3-3.3S351.8,210,351.8,211.8z"/>
			<path fill="#FFFFFF" d="M337,220.3c0,1.3,1,2.3,2.3,2.3c1.3,0,2.3-1,2.3-2.3s-1-2.3-2.3-2.3C338.1,218,337,219,337,220.3z"/>
			<circle fill="#FFFFFF" cx="310" cy="191.6" r="1.3"/>
			<path fill="#FFFFFF" d="M304.2,207.7c0,0.4,0.4,0.8,0.8,0.8c0.4,0,0.8-0.4,0.8-0.8s-0.4-0.8-0.8-0.8
				C304.5,206.9,304.2,207.3,304.2,207.7z"/>
			<path fill="#FFFFFF" d="M255,212.5c0,0.4,0.3,0.7,0.7,0.7c0.4,0,0.7-0.3,0.7-0.7c0-0.4-0.3-0.7-0.7-0.7
				C255.3,211.8,255,212.1,255,212.5z"/>
			<path fill="#FFFFFF" d="M211,221.1c0,0.5,0.4,0.9,0.9,0.9s0.9-0.4,0.9-0.9c0-0.5-0.4-0.9-0.9-0.9S211,220.6,211,221.1z"/>
			<path fill="#FFFFFF" d="M208.9,240.1c0,1.1,0.9,2,2,2c1.1,0,2-0.9,2-2s-0.9-2-2-2C209.8,238.2,208.9,239.1,208.9,240.1z"/>
			<polygon fill="#FFFFFF" points="228.4,247.9 228.4,247.9 228.4,247.9 228.4,247.9 			"/>
			<path fill="#FFFFFF" d="M234.4,272.6c0,0.9,0.8,1.7,1.7,1.7c0.9,0,1.7-0.8,1.7-1.7s-0.8-1.7-1.7-1.7
				C235.1,270.9,234.4,271.7,234.4,272.6z"/>
			<circle fill="#FFFFFF" cx="286.7" cy="266.8" r="2.2"/>
			<polygon fill="#FFFFFF" points="318.9,284.5 318.9,284.5 318.9,284.5 318.9,284.5 			"/>
			<path fill="#FFFFFF" d="M328.9,304.4c0,0.7,0.6,1.3,1.3,1.3s1.3-0.6,1.3-1.3c0-0.7-0.6-1.3-1.3-1.3S328.9,303.7,328.9,304.4z"/>
			<circle fill="#FFFFFF" cx="236.5" cy="320.6" r="2.4"/>
			<path fill="#FFFFFF" d="M380.3,135.8c0,0.9,0.7,1.5,1.5,1.5s1.5-0.7,1.5-1.5c0-0.9-0.7-1.5-1.5-1.5S380.3,134.9,380.3,135.8z"/>
			<path fill="#FFFFFF" d="M382.1,111.6c0,0.5,0.4,1,1,1c0.5,0,1-0.4,1-1s-0.4-1-1-1C382.5,110.6,382.1,111.1,382.1,111.6z"/>
			<path fill="#FFFFFF" d="M351.8,97.9c0,0.7,0.6,1.3,1.3,1.3c0.7,0,1.3-0.6,1.3-1.3s-0.6-1.3-1.3-1.3
				C352.4,96.6,351.8,97.2,351.8,97.9z"/>
			<path fill="#FFFFFF" d="M330.2,80.2c0,0.3,0.3,0.6,0.6,0.6c0.3,0,0.6-0.3,0.6-0.6c0-0.3-0.3-0.6-0.6-0.6
				C330.5,79.6,330.2,79.9,330.2,80.2z"/>
			<path fill="#FFFFFF" d="M407.8,75.9c0,0.4,0.3,0.7,0.7,0.7c0.4,0,0.7-0.3,0.7-0.7c0-0.4-0.3-0.7-0.7-0.7
				C408.1,75.1,407.8,75.4,407.8,75.9z"/>
			<path fill="#FFFFFF" d="M392.9,52.9c0-0.4,0.3-0.8,0.8-0.8c0.4,0,0.8,0.3,0.8,0.8c0,0.4-0.3,0.8-0.8,0.8
				C393.2,53.6,392.9,53.3,392.9,52.9z"/>
			<path fill="#FFFFFF" d="M433.3,119.2c0,1.1,0.9,2,2,2c1.1,0,2-0.9,2-2c0-1.1-0.9-2-2-2C434.2,117.1,433.3,118,433.3,119.2z"/>
			<path fill="#FFFFFF" d="M416.5,138.7c0,0.4,0.4,0.8,0.8,0.8c0.4,0,0.8-0.4,0.8-0.8c0-0.4-0.4-0.8-0.8-0.8
				C416.8,137.9,416.5,138.3,416.5,138.7z"/>
			<path fill="#FFFFFF" d="M517.4,121c0,0.2-0.1,0.3-0.3,0.3s-0.3-0.1-0.3-0.3c0-0.2,0.1-0.3,0.3-0.3S517.4,120.9,517.4,121z"/>
			<circle fill="#FFFFFF" cx="502.3" cy="77.7" r="1.9"/>
			<path fill="#FFFFFF" d="M553.4,154.4c0,0.4,0.3,0.6,0.6,0.6c0.4,0,0.6-0.3,0.6-0.6c0-0.4-0.3-0.6-0.6-0.6
				C553.7,153.8,553.4,154.1,553.4,154.4z"/>
			<path fill="#FFFFFF" d="M562.6,180.3c0,0,1.1,0,2.4,0c1.3,0,2.4,0,2.4,0s-1.1,0-2.4,0C563.6,180.3,562.6,180.3,562.6,180.3z"/>
			<circle fill="#FFFFFF" cx="564.5" cy="112.1" r="0.5"/>
			<path fill="#FFFFFF" d="M542.9,134.8c0,0.9,0.8,1.7,1.7,1.7c0.9,0,1.7-0.8,1.7-1.7s-0.8-1.7-1.7-1.7
				C543.6,133.1,542.9,133.8,542.9,134.8z"/>
			<circle fill="#FFFFFF" cx="593.1" cy="189.5" r="2.3"/>
			<path fill="#FFFFFF" d="M596.7,222.2c0,0.6,0.5,1.1,1.1,1.1c0.6,0,1.1-0.5,1.1-1.1c0-0.6-0.5-1.1-1.1-1.1
				C597.2,221.1,596.7,221.6,596.7,222.2z"/>
			<path fill="#FFFFFF" d="M587,250.9c0,0.5,0.4,0.9,0.9,0.9s0.9-0.4,0.9-0.9c0-0.5-0.4-0.9-0.9-0.9S587,250.4,587,250.9z"/>
			<circle fill="#FFFFFF" cx="567.9" cy="334.2" r="0.5"/>
			<circle fill="#FFFFFF" cx="584.7" cy="359.7" r="3.2"/>
			<path fill="#FFFFFF" d="M527.8,374.6c0,0.8,0.7,1.5,1.5,1.5s1.5-0.7,1.5-1.5c0-0.8-0.7-1.5-1.5-1.5S527.8,373.8,527.8,374.6z"/>
			<path fill="#FFFFFF" d="M421.9,364c0,0.6,0.5,1.1,1.1,1.1c0.6,0,1.1-0.5,1.1-1.1c0-0.6-0.5-1.1-1.1-1.1
				C422.4,362.9,421.9,363.4,421.9,364z"/>
			<path fill="#FFFFFF" d="M403.9,358.4c0,1.1,0.9,2,2,2c1.1,0,2-0.9,2-2c0-1.1-0.9-2-2-2C404.7,356.4,403.9,357.3,403.9,358.4z"/>
			<path fill="#FFFFFF" d="M384.1,391.7c0,1.1,0.9,2.1,2.1,2.1c1.1,0,2.1-0.9,2.1-2.1c0-1.1-0.9-2.1-2.1-2.1
				C385,389.6,384.1,390.6,384.1,391.7z"/>
			<circle fill="#FFFFFF" cx="366.1" cy="357.9" r="0.5"/>
			<circle fill="#FFFFFF" cx="344.9" cy="386.5" r="0.5"/>
			<circle fill="#FFFFFF" cx="327.2" cy="358.2" r="1.7"/>
			<path fill="#FFFFFF" d="M294.2,388.6c0,2.8,2.2,5,5,5c2.8,0,5-2.2,5-5c0-2.8-2.2-5-5-5C296.4,383.6,294.2,385.8,294.2,388.6z"/>
			<circle fill="#FFFFFF" cx="279.1" cy="354" r="1.8"/>
			<circle fill="#FFFFFF" cx="254" cy="384.4" r="2.9"/>
			<path fill="#FFFFFF" d="M230.7,357.3c0,0.9,0.7,1.5,1.5,1.5c0.9,0,1.5-0.7,1.5-1.5s-0.7-1.5-1.5-1.5
				C231.4,355.8,230.7,356.5,230.7,357.3z"/>
			<polygon fill="#FFFFFF" points="212.9,388.6 212.9,388.6 212.9,388.6 212.9,388.6 			"/>
			<circle fill="#FFFFFF" cx="181.6" cy="354" r="1.8"/>
			<circle fill="#FFFFFF" cx="150.8" cy="319.5" r="1.1"/>
			<path fill="#FFFFFF" d="M358.5,421.2c0,1.2,0.9,2.1,2.1,2.1c1.2,0,2.1-0.9,2.1-2.1s-0.9-2.1-2.1-2.1
				C359.4,419.1,358.5,420.1,358.5,421.2z"/>
			<circle fill="#FFFFFF" cx="404.8" cy="414.6" r="1"/>
			<path fill="#FFFFFF" d="M417.3,452c0,0.2,0.2,0.4,0.4,0.4s0.4-0.2,0.4-0.4s-0.2-0.4-0.4-0.4S417.3,451.8,417.3,452z"/>
			<circle fill="#FFFFFF" cx="396.6" cy="467.4" r="1.3"/>
			<circle fill="#FFFFFF" cx="461.4" cy="402.6" r="1.5"/>
			<path fill="#FFFFFF" d="M472.3,373.8c0,0.4,0.3,0.7,0.7,0.7c0.4,0,0.7-0.3,0.7-0.7c0-0.4-0.3-0.7-0.7-0.7
				C472.6,373.1,472.3,373.4,472.3,373.8z"/>
			<path fill="#FFFFFF" d="M447.4,291c0,0.6-0.5,1-1,1c-0.6,0-1-0.5-1-1c0-0.6,0.5-1,1-1C447,290,447.4,290.5,447.4,291z"/>
			<circle fill="#FFFFFF" cx="485.1" cy="296.4" r="1.3"/>
			<circle fill="#FFFFFF" cx="518.3" cy="299.4" r="0.9"/>
			<circle fill="#FFFFFF" cx="431.4" cy="234.4" r="0.5"/>
			<circle fill="#FFFFFF" cx="448.4" cy="248" r="0.9"/>
			<circle fill="#FFFFFF" cx="382.8" cy="293.4" r="1.3"/>
			<circle fill="#FFFFFF" cx="319.9" cy="265.6" r="1"/>
			<circle fill="#FFFFFF" cx="409" cy="187.1" r="1.2"/>
			<path fill="#FFFFFF" d="M414.1,221.3c0,1.2,1,2.2,2.2,2.2c1.2,0,2.2-1,2.2-2.2c0-1.2-1-2.2-2.2-2.2
				C415.1,219.1,414.1,220.1,414.1,221.3z"/>
			<circle fill="#FFFFFF" cx="470.4" cy="210.4" r="1.9"/>
			<path fill="#FFFFFF" d="M516,197.1c0,0.2,0.2,0.4,0.4,0.4c0.2,0,0.4-0.2,0.4-0.4c0-0.2-0.2-0.4-0.4-0.4
				C516.2,196.7,516,196.9,516,197.1z"/>
			<path fill="#FFFFFF" d="M547.1,231.9c0,1.7,1.4,3.2,3.2,3.2s3.2-1.4,3.2-3.2c0-1.7-1.4-3.2-3.2-3.2S547.1,230.1,547.1,231.9z"/>
			<path fill="#FFFFFF" d="M356.2,50.6c0,0.8-0.7,1.5-1.5,1.5s-1.5-0.7-1.5-1.5c0-0.8,0.7-1.5,1.5-1.5S356.2,49.8,356.2,50.6z"/>
			<circle fill="#FFFFFF" cx="376.5" cy="73.2" r="1.6"/>
			<path fill="#FFFFFF" d="M297.3,85.3c0,0.7,0.5,1.2,1.2,1.2c0.7,0,1.2-0.5,1.2-1.2s-0.5-1.2-1.2-1.2
				C297.8,84.1,297.3,84.6,297.3,85.3z"/>
			<path fill="#FFFFFF" d="M330.2,103.2c0,0.3,0.3,0.6,0.6,0.6c0.3,0,0.6-0.3,0.6-0.6c0-0.3-0.3-0.6-0.6-0.6
				C330.5,102.6,330.2,102.9,330.2,103.2z"/>
			<path fill="#FFFFFF" d="M439.1,85.3c0,0.7,0.5,1.2,1.2,1.2c0.7,0,1.2-0.5,1.2-1.2s-0.5-1.2-1.2-1.2
				C439.6,84.1,439.1,84.6,439.1,85.3z"/>
			<path fill="#FFFFFF" d="M386.1,30.1c0,0.6,0.5,1,1,1c0.6,0,1-0.5,1-1c0-0.6-0.5-1-1-1C386.6,29.1,386.1,29.6,386.1,30.1z"/>
			<path fill="#FFFFFF" d="M425.7,43.8c0,0.9,0.7,1.7,1.7,1.7c0.9,0,1.7-0.7,1.7-1.7c0-0.9-0.7-1.7-1.7-1.7
				C426.5,42.1,425.7,42.8,425.7,43.8z"/>
			<path fill="#FFFFFF" d="M386.1,424.4c0,0.6-0.5,1-1,1s-1-0.5-1-1c0-0.6,0.5-1,1-1S386.1,423.8,386.1,424.4z"/>
			<path fill="#FFFFFF" d="M508.9,146.1c0,0.3,0.2,0.5,0.5,0.5c0.3,0,0.5-0.2,0.5-0.5c0-0.3-0.2-0.5-0.5-0.5
				C509.1,145.5,508.9,145.8,508.9,146.1z"/>
			<circle fill="#FFFFFF" cx="549.1" cy="259.1" r="1.1"/>
		</g>
		<linearGradient id="SVGID_19_" gradientUnits="userSpaceOnUse" x1="375.0941" y1="524.9294" x2="375.0941" y2="263.4049">
			<stop  offset="0" style="stop-color:#00C2EF"/>
			<stop  offset="1" style="stop-color:#00FFFF;stop-opacity:0"/>
		</linearGradient>
		<circle fill="url(#SVGID_19_)" cx="375.1" cy="250.3" r="223.3"/>
	</g>
</g>
</svg>
