<?xml version="1.0" encoding="utf-8"?>
<!-- Generator: Adobe Illustrator 23.0.1, SVG Export Plug-In . SVG Version: 6.00 Build 0)  -->
<svg version="1.1" id="Layer_1" xmlns="http://www.w3.org/2000/svg" xmlns:xlink="http://www.w3.org/1999/xlink" x="0px" y="0px"
	 viewBox="0 0 64 64" enable-background="new 0 0 64 64" xml:space="preserve">
<title>Asset 1</title>
<g>
	<g id="Layer_1-2">
		<path fill="#F7931A" d="M63,39.7c-4.3,17.2-21.6,27.6-38.8,23.4S-3.4,41.5,0.9,24.3S22.5-3.3,39.6,1c0,0,0.1,0,0.1,0
			C56.8,5.3,67.2,22.6,63,39.7z"/>
		<path fill="#FFFFFF" d="M46.1,27.4c0.6-4.3-2.6-6.6-7-8.1l1.4-5.8L37,12.7l-1.4,5.6c-0.9-0.2-1.9-0.5-2.8-0.7l1.4-5.7l-3.5-0.9
			l-1.4,5.8L27,16.4l0,0l-4.9-1.2l-0.9,3.8c0,0,2.6,0.6,2.5,0.6c1,0.1,1.7,1,1.6,2l-1.6,6.6c0.1,0,0.2,0.1,0.4,0.1l-0.4-0.1
			l-2.3,9.2c-0.2,0.7-0.9,1-1.6,0.8c0,0,0,0,0,0c0,0-2.6-0.6-2.6-0.6l-1.7,4l4.6,1.1l2.5,0.7l-1.5,5.8l3.5,0.9l1.4-5.8
			c0.9,0.3,1.9,0.5,2.8,0.7l-1.4,5.8l3.5,0.9l1.4-5.8c6,1.1,10.5,0.7,12.4-4.7c1.5-4.4-0.1-6.9-3.2-8.5
			C43.9,32.1,45.6,30.6,46.1,27.4z M38.1,38.7c-1.1,4.4-8.4,2-10.8,1.4l1.9-7.7C31.6,33,39.2,34.1,38.1,38.7z M39.2,27.4
			c-1,4-7.1,2-9.1,1.5l1.8-7C33.8,22.3,40.2,23.2,39.2,27.4L39.2,27.4z"/>
	</g>
</g>
</svg>
