<?xml version="1.0" encoding="utf-8"?>
<!-- Generator: Adobe Illustrator 23.0.1, SVG Export Plug-In . SVG Version: 6.00 Build 0)  -->
<svg version="1.1" id="Layer_1" xmlns="http://www.w3.org/2000/svg" xmlns:xlink="http://www.w3.org/1999/xlink" x="0px" y="0px"
	 viewBox="0 0 32 32" enable-background="new 0 0 32 32" xml:space="preserve">
<g>
	<circle fill-rule="evenodd" clip-rule="evenodd" fill="#00AAE4" cx="16" cy="16" r="16"/>
	<path fill="#FFFFFF" d="M22,18.2c-0.7-0.4-1.5-0.5-2.2-0.6c-0.6,0-1.6-0.4-1.6-1.6c0-0.9,0.7-1.6,1.6-1.7c0.8,0,1.5-0.1,2.2-0.6
		c1.7-1,2.5-3.1,1.8-5s-2.6-3-4.5-2.7s-3.4,2.1-3.4,4.1c0,0.8,0.3,1.6,0.6,2.2c0.3,0.6,0.5,1.7-0.6,2.3c-0.8,0.5-1.7,0.2-2.2-0.6
		c-0.4-0.7-0.9-1.3-1.6-1.7c-1.7-1-3.9-0.6-5.2,0.9c-1.3,1.6-1.3,3.8,0,5.4c1.3,1.6,3.4,1.9,5.2,0.9c0.7-0.4,1.2-1,1.6-1.7
		c0.3-0.5,1.2-1.2,2.2-0.6c0.8,0.5,1,1.5,0.6,2.3c-0.4,0.7-0.6,1.4-0.6,2.2c0,2,1.4,3.8,3.4,4.1s3.9-0.8,4.5-2.7
		C24.4,21.3,23.7,19.2,22,18.2L22,18.2z"/>
</g>
</svg>
